<svg xmlns="http://www.w3.org/2000/svg" viewBox="0 0 760 430" width="760" height="430" font-family="ui-sans-serif, system-ui, sans-serif" font-size="11"><rect width="760" height="430" fill="white"/><text x="380" y="24" text-anchor="middle" font-size="15" font-weight="600">The dedup F1 climbs as the entity-truth gets honest</text><text x="380" y="42" text-anchor="middle" font-size="11.5" fill="#555">Identical matcher output (the same clusters) graded against three rulers — 1000 TX NPIs → 2757 records, NPI held out</text><line x1="64" y1="338.0" x2="592" y2="338.0" stroke="#e5e7eb" stroke-width="1"/><text x="56" y="341.0" text-anchor="end" fill="#374151">40%</text><line x1="64" y1="278.4" x2="592" y2="278.4" stroke="#e5e7eb" stroke-width="1"/><text x="56" y="281.4" text-anchor="end" fill="#374151">45%</text><line x1="64" y1="218.9" x2="592" y2="218.9" stroke="#e5e7eb" stroke-width="1"/><text x="56" y="221.9" text-anchor="end" fill="#374151">50%</text><line x1="64" y1="159.3" x2="592" y2="159.3" stroke="#e5e7eb" stroke-width="1"/><text x="56" y="162.3" text-anchor="end" fill="#374151">55%</text><line x1="64" y1="99.7" x2="592" y2="99.7" stroke="#e5e7eb" stroke-width="1"/><text x="56" y="102.7" text-anchor="end" fill="#374151">60%</text><text transform="translate(20, 201) rotate(-90)" text-anchor="middle" font-size="12" fill="#374151">entity-resolution F1</text><line x1="64.0" y1="64" x2="64.0" y2="338" stroke="#f1f1f1" stroke-width="1"/><text x="64.0" y="358" text-anchor="middle" font-size="12.5" font-weight="600">NPI</text><text x="64.0" y="374" text-anchor="middle" font-size="10" fill="#6b7280">1000 classes</text><text x="64.0" y="388" text-anchor="middle" font-size="9" fill="#9ca3af">one entity per registration</text><text x="64.0" y="400" text-anchor="middle" font-size="9" fill="#9ca3af">(over-segments orgs)</text><line x1="328.0" y1="64" x2="328.0" y2="338" stroke="#f1f1f1" stroke-width="1"/><text x="328.0" y="358" text-anchor="middle" font-size="12.5" font-weight="600">site</text><text x="328.0" y="374" text-anchor="middle" font-size="10" fill="#6b7280">1456 classes</text><text x="328.0" y="388" text-anchor="middle" font-size="9" fill="#9ca3af">subpart-collapse +</text><text x="328.0" y="400" text-anchor="middle" font-size="9" fill="#9ca3af">address-split (conservative)</text><line x1="592.0" y1="64" x2="592.0" y2="338" stroke="#f1f1f1" stroke-width="1"/><text x="592.0" y="358" text-anchor="middle" font-size="12.5" font-weight="600">org-name</text><text x="592.0" y="374" text-anchor="middle" font-size="10" fill="#6b7280">956 classes</text><text x="592.0" y="388" text-anchor="middle" font-size="9" fill="#9ca3af">same-org co-located collapse</text><text x="592.0" y="400" text-anchor="middle" font-size="9" fill="#9ca3af">(gold-set validated)</text><polyline points="64.0,176.0 328.0,155.7 592.0,91.4" fill="none" stroke="#3578e5" stroke-width="3"/><circle cx="64.0" cy="176.0" r="5" fill="#3578e5"/><text x="64.0" y="166.0" text-anchor="middle" font-size="11" font-weight="700" fill="#3578e5">53.6</text><circle cx="328.0" cy="155.7" r="5" fill="#3578e5"/><text x="328.0" y="145.7" text-anchor="middle" font-size="11" font-weight="700" fill="#3578e5">55.3</text><circle cx="592.0" cy="91.4" r="5" fill="#3578e5"/><text x="592.0" y="81.4" text-anchor="middle" font-size="11" font-weight="700" fill="#3578e5">60.7</text><polyline points="64.0,277.2 328.0,305.8 592.0,191.5" fill="none" stroke="#9ca3af" stroke-width="2" stroke-dasharray="5 4"/><circle cx="64.0" cy="277.2" r="4" fill="#9ca3af"/><text x="64.0" y="293.2" text-anchor="middle" font-size="11" font-weight="400" fill="#9ca3af">45.1</text><circle cx="328.0" cy="305.8" r="4" fill="#9ca3af"/><text x="328.0" y="321.8" text-anchor="middle" font-size="11" font-weight="400" fill="#9ca3af">42.7</text><circle cx="592.0" cy="191.5" r="4" fill="#9ca3af"/><text x="592.0" y="207.5" text-anchor="middle" font-size="11" font-weight="400" fill="#9ca3af">52.3</text><line x1="608" y1="70" x2="630" y2="70" stroke="#3578e5" stroke-width="3"/><text x="636" y="73.5" font-size="10.5" fill="#374151">GBT (shipped default)</text><line x1="608" y1="88" x2="630" y2="88" stroke="#9ca3af" stroke-width="2" stroke-dasharray="5 4"/><text x="636" y="91.5" font-size="10.5" fill="#374151">FS full stack</text><g font-size="10.5"><text x="608" y="124" font-weight="700" fill="#3578e5">+7.1pp NPI → org-name</text><text x="608" y="139" fill="#555">same clusters —</text><text x="608" y="152" fill="#555">the ruler, not the model.</text><text x="608" y="170" fill="#555">over-merge 109 → 92,</text><text x="608" y="183" fill="#555">precision 43.7% → 53.3%.</text></g><path d="M 588.0 176.0 L 594.0 176.0 L 594.0 91.4 L 588.0 91.4" fill="none" stroke="#3578e5" stroke-width="1" opacity="0.5"/><text x="64" y="420" font-size="9.5" fill="#9ca3af">Gold set (2026-06-16-dedup-gold-set-tx120): 120/120 hard co-located pairs = same org, 0 genuine over-merges. org-name is the honest yardstick; NPI charges correct same-org merges as errors.</text></svg>