<svg xmlns="http://www.w3.org/2000/svg" viewBox="0 0 720 380" width="720" height="380" font-family="ui-sans-serif, system-ui, sans-serif" font-size="11"><rect width="720" height="380" fill="white" /><text x="360" y="22" text-anchor="middle" font-size="14" font-weight="600">v0.6.2 vs v0.6.2b — f1.house_number</text><text x="295" y="368" text-anchor="middle" font-size="12">training step</text><text transform="translate(20, 190) rotate(-90)" text-anchor="middle" font-size="12">f1.house_number</text><line x1="70" y1="309.78682290241994" x2="520" y2="309.78682290241994" stroke="#e5e7eb" stroke-width="1" /><text x="64" y="312.78682290241994" text-anchor="end">0.980</text><line x1="70" y1="248.02193535863324" x2="520" y2="248.02193535863324" stroke="#e5e7eb" stroke-width="1" /><text x="64" y="251.02193535863324" text-anchor="end">0.985</text><line x1="70" y1="186.25704781484657" x2="520" y2="186.25704781484657" stroke="#e5e7eb" stroke-width="1" /><text x="64" y="189.25704781484657" text-anchor="end">0.990</text><line x1="70" y1="124.49216027105987" x2="520" y2="124.49216027105987" stroke="#e5e7eb" stroke-width="1" /><text x="64" y="127.49216027105987" text-anchor="end">0.995</text><line x1="70" y1="62.727272727273146" x2="520" y2="62.727272727273146" stroke="#e5e7eb" stroke-width="1" /><text x="64" y="65.72727272727315" text-anchor="end">1</text><line x1="152.65306122448982" y1="330" x2="152.65306122448982" y2="334" stroke="#374151" stroke-width="1" /><text x="152.65306122448982" y="348" text-anchor="middle">20,000</text><line x1="244.48979591836735" y1="330" x2="244.48979591836735" y2="334" stroke="#374151" stroke-width="1" /><text x="244.48979591836735" y="348" text-anchor="middle">40,000</text><line x1="336.3265306122449" y1="330" x2="336.3265306122449" y2="334" stroke="#374151" stroke-width="1" /><text x="336.3265306122449" y="348" text-anchor="middle">60,000</text><line x1="428.16326530612247" y1="330" x2="428.16326530612247" y2="334" stroke="#374151" stroke-width="1" /><text x="428.16326530612247" y="348" text-anchor="middle">80,000</text><line x1="520" y1="330" x2="520" y2="334" stroke="#374151" stroke-width="1" /><text x="520" y="348" text-anchor="middle">100,000</text><rect x="70" y="50" width="450" height="280" fill="none" stroke="#9ca3af" stroke-width="1" /><path d="M70.0,196.3 L79.2,218.7 L88.4,233.4 L97.6,75.0 L106.7,100.3 L115.9,98.6 L125.1,84.4 L134.3,68.9 L143.5,68.9 L152.7,67.4 L161.8,79.8 L171.0,65.8 L180.2,65.8 L189.4,65.8 L198.6,68.9 L207.8,65.8 L216.9,68.9 L226.1,76.7 L235.3,75.1 L244.5,67.4 L253.7,65.8 L262.9,68.9 L272.0,67.4 L281.2,67.4 L290.4,65.8 L299.6,67.4 L308.8,65.8 L318.0,62.7 L327.1,71.9 L336.3,64.3 L345.5,62.7 L354.7,64.3 L363.9,85.8 L373.1,98.1 L382.2,102.8 L391.4,65.8 L400.6,68.9 L409.8,70.5 L419.0,70.5 L428.2,68.9 L437.3,75.1 L446.5,85.8 L455.7,64.3 L464.9,70.5 L474.1,67.4 L483.3,72.0 L492.4,68.9 L501.6,82.9 L510.8,70.5 L520.0,79.8" fill="none" stroke="#2563eb" stroke-width="1.5" stroke-linejoin="round" /><circle cx="70.0" cy="196.3" r="2.5" fill="#2563eb" /><circle cx="79.2" cy="218.7" r="2.5" fill="#2563eb" /><circle cx="88.4" cy="233.4" r="2.5" fill="#2563eb" /><circle cx="97.6" cy="75.0" r="2.5" fill="#2563eb" /><circle cx="106.7" cy="100.3" r="2.5" fill="#2563eb" /><circle cx="115.9" cy="98.6" r="2.5" fill="#2563eb" /><circle cx="125.1" cy="84.4" r="2.5" fill="#2563eb" /><circle cx="134.3" cy="68.9" r="2.5" fill="#2563eb" /><circle cx="143.5" cy="68.9" r="2.5" fill="#2563eb" /><circle cx="152.7" cy="67.4" r="2.5" fill="#2563eb" /><circle cx="161.8" cy="79.8" r="2.5" fill="#2563eb" /><circle cx="171.0" cy="65.8" r="2.5" fill="#2563eb" /><circle cx="180.2" cy="65.8" r="2.5" fill="#2563eb" /><circle cx="189.4" cy="65.8" r="2.5" fill="#2563eb" /><circle cx="198.6" cy="68.9" r="2.5" fill="#2563eb" /><circle cx="207.8" cy="65.8" r="2.5" fill="#2563eb" /><circle cx="216.9" cy="68.9" r="2.5" fill="#2563eb" /><circle cx="226.1" cy="76.7" r="2.5" fill="#2563eb" /><circle cx="235.3" cy="75.1" r="2.5" fill="#2563eb" /><circle cx="244.5" cy="67.4" r="2.5" fill="#2563eb" /><circle cx="253.7" cy="65.8" r="2.5" fill="#2563eb" /><circle cx="262.9" cy="68.9" r="2.5" fill="#2563eb" /><circle cx="272.0" cy="67.4" r="2.5" fill="#2563eb" /><circle cx="281.2" cy="67.4" r="2.5" fill="#2563eb" /><circle cx="290.4" cy="65.8" r="2.5" fill="#2563eb" /><circle cx="299.6" cy="67.4" r="2.5" fill="#2563eb" /><circle cx="308.8" cy="65.8" r="2.5" fill="#2563eb" /><circle cx="318.0" cy="62.7" r="2.5" fill="#2563eb" /><circle cx="327.1" cy="71.9" r="2.5" fill="#2563eb" /><circle cx="336.3" cy="64.3" r="2.5" fill="#2563eb" /><circle cx="345.5" cy="62.7" r="2.5" fill="#2563eb" /><circle cx="354.7" cy="64.3" r="2.5" fill="#2563eb" /><circle cx="363.9" cy="85.8" r="2.5" fill="#2563eb" /><circle cx="373.1" cy="98.1" r="2.5" fill="#2563eb" /><circle cx="382.2" cy="102.8" r="2.5" fill="#2563eb" /><circle cx="391.4" cy="65.8" r="2.5" fill="#2563eb" /><circle cx="400.6" cy="68.9" r="2.5" fill="#2563eb" /><circle cx="409.8" cy="70.5" r="2.5" fill="#2563eb" /><circle cx="419.0" cy="70.5" r="2.5" fill="#2563eb" /><circle cx="428.2" cy="68.9" r="2.5" fill="#2563eb" /><circle cx="437.3" cy="75.1" r="2.5" fill="#2563eb" /><circle cx="446.5" cy="85.8" r="2.5" fill="#2563eb" /><circle cx="455.7" cy="64.3" r="2.5" fill="#2563eb" /><circle cx="464.9" cy="70.5" r="2.5" fill="#2563eb" /><circle cx="474.1" cy="67.4" r="2.5" fill="#2563eb" /><circle cx="483.3" cy="72.0" r="2.5" fill="#2563eb" /><circle cx="492.4" cy="68.9" r="2.5" fill="#2563eb" /><circle cx="501.6" cy="82.9" r="2.5" fill="#2563eb" /><circle cx="510.8" cy="70.5" r="2.5" fill="#2563eb" /><circle cx="520.0" cy="79.8" r="2.5" fill="#2563eb" /><path d="M70.0,317.3 L79.2,262.7 L88.4,190.4 L97.6,65.8 L106.7,106.2 L115.9,71.9 L125.1,68.9 L134.3,70.3 L143.5,74.8 L152.7,73.6 L161.8,73.6 L171.0,87.5 L180.2,89.0 L189.4,87.5 L198.6,96.7 L207.8,76.7 L216.9,86.0 L226.1,90.6 L235.3,98.1 L244.5,83.9 L253.7,79.3 L262.9,77.9 L272.0,65.8 L281.2,68.9 L290.4,65.8 L299.6,65.8 L308.8,72.0 L318.0,67.4" fill="none" stroke="#dc2626" stroke-width="1.5" stroke-linejoin="round" /><circle cx="70.0" cy="317.3" r="2.5" fill="#dc2626" /><circle cx="79.2" cy="262.7" r="2.5" fill="#dc2626" /><circle cx="88.4" cy="190.4" r="2.5" fill="#dc2626" /><circle cx="97.6" cy="65.8" r="2.5" fill="#dc2626" /><circle cx="106.7" cy="106.2" r="2.5" fill="#dc2626" /><circle cx="115.9" cy="71.9" r="2.5" fill="#dc2626" /><circle cx="125.1" cy="68.9" r="2.5" fill="#dc2626" /><circle cx="134.3" cy="70.3" r="2.5" fill="#dc2626" /><circle cx="143.5" cy="74.8" r="2.5" fill="#dc2626" /><circle cx="152.7" cy="73.6" r="2.5" fill="#dc2626" /><circle cx="161.8" cy="73.6" r="2.5" fill="#dc2626" /><circle cx="171.0" cy="87.5" r="2.5" fill="#dc2626" /><circle cx="180.2" cy="89.0" r="2.5" fill="#dc2626" /><circle cx="189.4" cy="87.5" r="2.5" fill="#dc2626" /><circle cx="198.6" cy="96.7" r="2.5" fill="#dc2626" /><circle cx="207.8" cy="76.7" r="2.5" fill="#dc2626" /><circle cx="216.9" cy="86.0" r="2.5" fill="#dc2626" /><circle cx="226.1" cy="90.6" r="2.5" fill="#dc2626" /><circle cx="235.3" cy="98.1" r="2.5" fill="#dc2626" /><circle cx="244.5" cy="83.9" r="2.5" fill="#dc2626" /><circle cx="253.7" cy="79.3" r="2.5" fill="#dc2626" /><circle cx="262.9" cy="77.9" r="2.5" fill="#dc2626" /><circle cx="272.0" cy="65.8" r="2.5" fill="#dc2626" /><circle cx="281.2" cy="68.9" r="2.5" fill="#dc2626" /><circle cx="290.4" cy="65.8" r="2.5" fill="#dc2626" /><circle cx="299.6" cy="65.8" r="2.5" fill="#dc2626" /><circle cx="308.8" cy="72.0" r="2.5" fill="#dc2626" /><circle cx="318.0" cy="67.4" r="2.5" fill="#dc2626" /><text x="532" y="58" font-size="12" font-weight="600">runs</text><line x1="532" y1="72" x2="550" y2="72" stroke="#2563eb" stroke-width="2" /><text x="556" y="76" font-size="11">v0.6.2 (n=50)</text><line x1="532" y1="88" x2="550" y2="88" stroke="#dc2626" stroke-width="2" /><text x="556" y="92" font-size="11">v0.6.2b (n=28)</text></svg>
