<svg xmlns="http://www.w3.org/2000/svg" viewBox="0 0 720 380" width="720" height="380" font-family="ui-sans-serif, system-ui, sans-serif" font-size="11"><rect width="720" height="380" fill="white" /><text x="360" y="22" text-anchor="middle" font-size="14" font-weight="600">v0.6.2 vs v0.6.2b — f1.venue</text><text x="295" y="368" text-anchor="middle" font-size="12">training step</text><text transform="translate(20, 190) rotate(-90)" text-anchor="middle" font-size="12">(log scale) f1.venue</text><text x="152.65306122448982" y="348" text-anchor="middle">20,000</text><line x1="244.48979591836735" y1="330" x2="244.48979591836735" y2="334" stroke="#374151" stroke-width="1" /><text x="244.48979591836735" y="348" text-anchor="middle">40,000</text><line x1="336.3265306122449" y1="330" x2="336.3265306122449" y2="334" stroke="#374151" stroke-width="1" /><text x="336.3265306122449" y="348" text-anchor="middle">60,000</text><line x1="428.16326530612247" y1="330" x2="428.16326530612247" y2="334" stroke="#374151" stroke-width="1" /><text x="428.16326530612247" y="348" text-anchor="middle">80,000</text><line x1="520" y1="330" x2="520" y2="334" stroke="#374151" stroke-width="1" /><text x="520" y="348" text-anchor="middle">100,000</text><line x1="70" y1="330.0" x2="520" y2="330.0" stroke="#e5e7eb" stroke-width="1" />
<text x="64" y="333.0" text-anchor="end">0.700</text>
<line x1="70" y1="50.0" x2="520" y2="50.0" stroke="#e5e7eb" stroke-width="1" />
<text x="64" y="53.0" text-anchor="end">1</text>
<rect x="70" y="50" width="450" height="280" fill="none" stroke="#9ca3af" stroke-width="1" /><path d="M70.0,172.9 L79.2,278.2 L88.4,76.6 L97.6,60.8 L106.7,275.8 L115.9,60.8 L125.1,60.8 L134.3,60.8 L143.5,60.8 L152.7,208.2 L161.8,60.8 L171.0,60.8 L180.2,60.8 L189.4,126.2 L198.6,126.2 L207.8,60.8 L216.9,60.8 L226.1,60.8 L235.3,60.8 L244.5,60.8 L253.7,60.8 L262.9,60.8 L272.0,60.8 L281.2,60.8 L290.4,60.8 L299.6,60.8 L308.8,60.8 L318.0,60.8 L327.1,60.8 L336.3,60.8 L345.5,60.8 L354.7,126.2 L363.9,60.8 L373.1,172.9 L382.2,126.2 L391.4,60.8 L400.6,60.8 L409.8,60.8 L419.0,60.8 L428.2,60.8 L437.3,60.8 L446.5,126.2 L455.7,60.8 L464.9,60.8 L474.1,60.8 L483.3,60.8 L492.4,208.2 L501.6,60.8 L510.8,60.8 L520.0,172.9" fill="none" stroke="#2563eb" stroke-width="1.5" stroke-linejoin="round" /><circle cx="70.0" cy="172.9" r="2.5" fill="#2563eb" /><circle cx="79.2" cy="278.2" r="2.5" fill="#2563eb" /><circle cx="88.4" cy="76.6" r="2.5" fill="#2563eb" /><circle cx="97.6" cy="60.8" r="2.5" fill="#2563eb" /><circle cx="106.7" cy="275.8" r="2.5" fill="#2563eb" /><circle cx="115.9" cy="60.8" r="2.5" fill="#2563eb" /><circle cx="125.1" cy="60.8" r="2.5" fill="#2563eb" /><circle cx="134.3" cy="60.8" r="2.5" fill="#2563eb" /><circle cx="143.5" cy="60.8" r="2.5" fill="#2563eb" /><circle cx="152.7" cy="208.2" r="2.5" fill="#2563eb" /><circle cx="161.8" cy="60.8" r="2.5" fill="#2563eb" /><circle cx="171.0" cy="60.8" r="2.5" fill="#2563eb" /><circle cx="180.2" cy="60.8" r="2.5" fill="#2563eb" /><circle cx="189.4" cy="126.2" r="2.5" fill="#2563eb" /><circle cx="198.6" cy="126.2" r="2.5" fill="#2563eb" /><circle cx="207.8" cy="60.8" r="2.5" fill="#2563eb" /><circle cx="216.9" cy="60.8" r="2.5" fill="#2563eb" /><circle cx="226.1" cy="60.8" r="2.5" fill="#2563eb" /><circle cx="235.3" cy="60.8" r="2.5" fill="#2563eb" /><circle cx="244.5" cy="60.8" r="2.5" fill="#2563eb" /><circle cx="253.7" cy="60.8" r="2.5" fill="#2563eb" /><circle cx="262.9" cy="60.8" r="2.5" fill="#2563eb" /><circle cx="272.0" cy="60.8" r="2.5" fill="#2563eb" /><circle cx="281.2" cy="60.8" r="2.5" fill="#2563eb" /><circle cx="290.4" cy="60.8" r="2.5" fill="#2563eb" /><circle cx="299.6" cy="60.8" r="2.5" fill="#2563eb" /><circle cx="308.8" cy="60.8" r="2.5" fill="#2563eb" /><circle cx="318.0" cy="60.8" r="2.5" fill="#2563eb" /><circle cx="327.1" cy="60.8" r="2.5" fill="#2563eb" /><circle cx="336.3" cy="60.8" r="2.5" fill="#2563eb" /><circle cx="345.5" cy="60.8" r="2.5" fill="#2563eb" /><circle cx="354.7" cy="126.2" r="2.5" fill="#2563eb" /><circle cx="363.9" cy="60.8" r="2.5" fill="#2563eb" /><circle cx="373.1" cy="172.9" r="2.5" fill="#2563eb" /><circle cx="382.2" cy="126.2" r="2.5" fill="#2563eb" /><circle cx="391.4" cy="60.8" r="2.5" fill="#2563eb" /><circle cx="400.6" cy="60.8" r="2.5" fill="#2563eb" /><circle cx="409.8" cy="60.8" r="2.5" fill="#2563eb" /><circle cx="419.0" cy="60.8" r="2.5" fill="#2563eb" /><circle cx="428.2" cy="60.8" r="2.5" fill="#2563eb" /><circle cx="437.3" cy="60.8" r="2.5" fill="#2563eb" /><circle cx="446.5" cy="126.2" r="2.5" fill="#2563eb" /><circle cx="455.7" cy="60.8" r="2.5" fill="#2563eb" /><circle cx="464.9" cy="60.8" r="2.5" fill="#2563eb" /><circle cx="474.1" cy="60.8" r="2.5" fill="#2563eb" /><circle cx="483.3" cy="60.8" r="2.5" fill="#2563eb" /><circle cx="492.4" cy="208.2" r="2.5" fill="#2563eb" /><circle cx="501.6" cy="60.8" r="2.5" fill="#2563eb" /><circle cx="510.8" cy="60.8" r="2.5" fill="#2563eb" /><circle cx="520.0" cy="172.9" r="2.5" fill="#2563eb" /><path d="M70.0,268.1 L79.2,126.2 L88.4,235.7 L97.6,60.8 L106.7,303.8 L115.9,60.8 L125.1,60.8 L134.3,126.2 L143.5,303.8 L152.7,60.8 L161.8,314.9 L171.0,126.2 L180.2,126.2 L189.4,172.9 L198.6,257.7 L207.8,126.2 L216.9,172.9 L226.1,60.8 L235.3,126.2 L244.5,126.2 L253.7,126.2 L262.9,172.9 L272.0,60.8 L281.2,60.8 L290.4,60.8 L299.6,60.8 L308.8,60.8 L318.0,172.9" fill="none" stroke="#dc2626" stroke-width="1.5" stroke-linejoin="round" /><circle cx="70.0" cy="268.1" r="2.5" fill="#dc2626" /><circle cx="79.2" cy="126.2" r="2.5" fill="#dc2626" /><circle cx="88.4" cy="235.7" r="2.5" fill="#dc2626" /><circle cx="97.6" cy="60.8" r="2.5" fill="#dc2626" /><circle cx="106.7" cy="303.8" r="2.5" fill="#dc2626" /><circle cx="115.9" cy="60.8" r="2.5" fill="#dc2626" /><circle cx="125.1" cy="60.8" r="2.5" fill="#dc2626" /><circle cx="134.3" cy="126.2" r="2.5" fill="#dc2626" /><circle cx="143.5" cy="303.8" r="2.5" fill="#dc2626" /><circle cx="152.7" cy="60.8" r="2.5" fill="#dc2626" /><circle cx="161.8" cy="314.9" r="2.5" fill="#dc2626" /><circle cx="171.0" cy="126.2" r="2.5" fill="#dc2626" /><circle cx="180.2" cy="126.2" r="2.5" fill="#dc2626" /><circle cx="189.4" cy="172.9" r="2.5" fill="#dc2626" /><circle cx="198.6" cy="257.7" r="2.5" fill="#dc2626" /><circle cx="207.8" cy="126.2" r="2.5" fill="#dc2626" /><circle cx="216.9" cy="172.9" r="2.5" fill="#dc2626" /><circle cx="226.1" cy="60.8" r="2.5" fill="#dc2626" /><circle cx="235.3" cy="126.2" r="2.5" fill="#dc2626" /><circle cx="244.5" cy="126.2" r="2.5" fill="#dc2626" /><circle cx="253.7" cy="126.2" r="2.5" fill="#dc2626" /><circle cx="262.9" cy="172.9" r="2.5" fill="#dc2626" /><circle cx="272.0" cy="60.8" r="2.5" fill="#dc2626" /><circle cx="281.2" cy="60.8" r="2.5" fill="#dc2626" /><circle cx="290.4" cy="60.8" r="2.5" fill="#dc2626" /><circle cx="299.6" cy="60.8" r="2.5" fill="#dc2626" /><circle cx="308.8" cy="60.8" r="2.5" fill="#dc2626" /><circle cx="318.0" cy="172.9" r="2.5" fill="#dc2626" /><text x="532" y="58" font-size="12" font-weight="600">runs</text><line x1="532" y1="72" x2="550" y2="72" stroke="#2563eb" stroke-width="2" /><text x="556" y="76" font-size="11">v0.6.2 (n=50)</text><line x1="532" y1="88" x2="550" y2="88" stroke="#dc2626" stroke-width="2" /><text x="556" y="92" font-size="11">v0.6.2b (n=28)</text></svg>
