<svg xmlns="http://www.w3.org/2000/svg" viewBox="0 0 720 380" width="720" height="380" font-family="ui-sans-serif, system-ui, sans-serif" font-size="11"><rect width="720" height="380" fill="white" /><text x="360" y="22" text-anchor="middle" font-size="14" font-weight="600">v0.6.2 vs v0.6.2b — f1.region</text><text x="295" y="368" text-anchor="middle" font-size="12">training step</text><text transform="translate(20, 190) rotate(-90)" text-anchor="middle" font-size="12">(log scale) f1.region</text><text x="152.65306122448982" y="348" text-anchor="middle">20,000</text><line x1="244.48979591836735" y1="330" x2="244.48979591836735" y2="334" stroke="#374151" stroke-width="1" /><text x="244.48979591836735" y="348" text-anchor="middle">40,000</text><line x1="336.3265306122449" y1="330" x2="336.3265306122449" y2="334" stroke="#374151" stroke-width="1" /><text x="336.3265306122449" y="348" text-anchor="middle">60,000</text><line x1="428.16326530612247" y1="330" x2="428.16326530612247" y2="334" stroke="#374151" stroke-width="1" /><text x="428.16326530612247" y="348" text-anchor="middle">80,000</text><line x1="520" y1="330" x2="520" y2="334" stroke="#374151" stroke-width="1" /><text x="520" y="348" text-anchor="middle">100,000</text><line x1="70" y1="180.0" x2="520" y2="180.0" stroke="#e5e7eb" stroke-width="1" />
<text x="64" y="183.0" text-anchor="end">0.700</text>
<rect x="70" y="50" width="450" height="280" fill="none" stroke="#9ca3af" stroke-width="1" /><path d="M70.0,290.2 L79.2,191.4 L88.4,187.7 L97.6,140.5 L106.7,135.2 L115.9,110.6 L125.1,107.1 L134.3,100.7 L143.5,91.5 L152.7,89.7 L161.8,95.3 L171.0,81.3 L180.2,84.5 L189.4,90.1 L198.6,95.6 L207.8,103.0 L216.9,113.0 L226.1,110.6 L235.3,109.9 L244.5,94.5 L253.7,96.3 L262.9,93.1 L272.0,102.0 L281.2,97.8 L290.4,92.8 L299.6,88.6 L308.8,88.5 L318.0,84.6 L327.1,75.3 L336.3,81.2 L345.5,80.1 L354.7,85.5 L363.9,86.0 L373.1,92.5 L382.2,74.1 L391.4,75.4 L400.6,76.5 L409.8,77.8 L419.0,315.4 L428.2,146.9 L437.3,119.9 L446.5,116.5 L455.7,107.4 L464.9,124.3 L474.1,113.6 L483.3,104.5 L492.4,61.1 L501.6,68.1 L510.8,69.0 L520.0,66.5" fill="none" stroke="#2563eb" stroke-width="1.5" stroke-linejoin="round" /><circle cx="70.0" cy="290.2" r="2.5" fill="#2563eb" /><circle cx="79.2" cy="191.4" r="2.5" fill="#2563eb" /><circle cx="88.4" cy="187.7" r="2.5" fill="#2563eb" /><circle cx="97.6" cy="140.5" r="2.5" fill="#2563eb" /><circle cx="106.7" cy="135.2" r="2.5" fill="#2563eb" /><circle cx="115.9" cy="110.6" r="2.5" fill="#2563eb" /><circle cx="125.1" cy="107.1" r="2.5" fill="#2563eb" /><circle cx="134.3" cy="100.7" r="2.5" fill="#2563eb" /><circle cx="143.5" cy="91.5" r="2.5" fill="#2563eb" /><circle cx="152.7" cy="89.7" r="2.5" fill="#2563eb" /><circle cx="161.8" cy="95.3" r="2.5" fill="#2563eb" /><circle cx="171.0" cy="81.3" r="2.5" fill="#2563eb" /><circle cx="180.2" cy="84.5" r="2.5" fill="#2563eb" /><circle cx="189.4" cy="90.1" r="2.5" fill="#2563eb" /><circle cx="198.6" cy="95.6" r="2.5" fill="#2563eb" /><circle cx="207.8" cy="103.0" r="2.5" fill="#2563eb" /><circle cx="216.9" cy="113.0" r="2.5" fill="#2563eb" /><circle cx="226.1" cy="110.6" r="2.5" fill="#2563eb" /><circle cx="235.3" cy="109.9" r="2.5" fill="#2563eb" /><circle cx="244.5" cy="94.5" r="2.5" fill="#2563eb" /><circle cx="253.7" cy="96.3" r="2.5" fill="#2563eb" /><circle cx="262.9" cy="93.1" r="2.5" fill="#2563eb" /><circle cx="272.0" cy="102.0" r="2.5" fill="#2563eb" /><circle cx="281.2" cy="97.8" r="2.5" fill="#2563eb" /><circle cx="290.4" cy="92.8" r="2.5" fill="#2563eb" /><circle cx="299.6" cy="88.6" r="2.5" fill="#2563eb" /><circle cx="308.8" cy="88.5" r="2.5" fill="#2563eb" /><circle cx="318.0" cy="84.6" r="2.5" fill="#2563eb" /><circle cx="327.1" cy="75.3" r="2.5" fill="#2563eb" /><circle cx="336.3" cy="81.2" r="2.5" fill="#2563eb" /><circle cx="345.5" cy="80.1" r="2.5" fill="#2563eb" /><circle cx="354.7" cy="85.5" r="2.5" fill="#2563eb" /><circle cx="363.9" cy="86.0" r="2.5" fill="#2563eb" /><circle cx="373.1" cy="92.5" r="2.5" fill="#2563eb" /><circle cx="382.2" cy="74.1" r="2.5" fill="#2563eb" /><circle cx="391.4" cy="75.4" r="2.5" fill="#2563eb" /><circle cx="400.6" cy="76.5" r="2.5" fill="#2563eb" /><circle cx="409.8" cy="77.8" r="2.5" fill="#2563eb" /><circle cx="419.0" cy="315.4" r="2.5" fill="#2563eb" /><circle cx="428.2" cy="146.9" r="2.5" fill="#2563eb" /><circle cx="437.3" cy="119.9" r="2.5" fill="#2563eb" /><circle cx="446.5" cy="116.5" r="2.5" fill="#2563eb" /><circle cx="455.7" cy="107.4" r="2.5" fill="#2563eb" /><circle cx="464.9" cy="124.3" r="2.5" fill="#2563eb" /><circle cx="474.1" cy="113.6" r="2.5" fill="#2563eb" /><circle cx="483.3" cy="104.5" r="2.5" fill="#2563eb" /><circle cx="492.4" cy="61.1" r="2.5" fill="#2563eb" /><circle cx="501.6" cy="68.1" r="2.5" fill="#2563eb" /><circle cx="510.8" cy="69.0" r="2.5" fill="#2563eb" /><circle cx="520.0" cy="66.5" r="2.5" fill="#2563eb" /><path d="M70.0,295.5 L79.2,189.7 L88.4,174.9 L97.6,136.8 L106.7,122.3 L115.9,115.1 L125.1,97.6 L134.3,92.6 L143.5,92.1 L152.7,102.0 L161.8,90.6 L171.0,82.3 L180.2,89.3 L189.4,89.7 L198.6,85.3 L207.8,95.6 L216.9,94.3 L226.1,102.8 L235.3,86.9 L244.5,82.6 L253.7,79.6 L262.9,82.2 L272.0,79.1 L281.2,94.5 L290.4,87.5 L299.6,80.1 L308.8,81.7 L318.0,93.7" fill="none" stroke="#dc2626" stroke-width="1.5" stroke-linejoin="round" /><circle cx="70.0" cy="295.5" r="2.5" fill="#dc2626" /><circle cx="79.2" cy="189.7" r="2.5" fill="#dc2626" /><circle cx="88.4" cy="174.9" r="2.5" fill="#dc2626" /><circle cx="97.6" cy="136.8" r="2.5" fill="#dc2626" /><circle cx="106.7" cy="122.3" r="2.5" fill="#dc2626" /><circle cx="115.9" cy="115.1" r="2.5" fill="#dc2626" /><circle cx="125.1" cy="97.6" r="2.5" fill="#dc2626" /><circle cx="134.3" cy="92.6" r="2.5" fill="#dc2626" /><circle cx="143.5" cy="92.1" r="2.5" fill="#dc2626" /><circle cx="152.7" cy="102.0" r="2.5" fill="#dc2626" /><circle cx="161.8" cy="90.6" r="2.5" fill="#dc2626" /><circle cx="171.0" cy="82.3" r="2.5" fill="#dc2626" /><circle cx="180.2" cy="89.3" r="2.5" fill="#dc2626" /><circle cx="189.4" cy="89.7" r="2.5" fill="#dc2626" /><circle cx="198.6" cy="85.3" r="2.5" fill="#dc2626" /><circle cx="207.8" cy="95.6" r="2.5" fill="#dc2626" /><circle cx="216.9" cy="94.3" r="2.5" fill="#dc2626" /><circle cx="226.1" cy="102.8" r="2.5" fill="#dc2626" /><circle cx="235.3" cy="86.9" r="2.5" fill="#dc2626" /><circle cx="244.5" cy="82.6" r="2.5" fill="#dc2626" /><circle cx="253.7" cy="79.6" r="2.5" fill="#dc2626" /><circle cx="262.9" cy="82.2" r="2.5" fill="#dc2626" /><circle cx="272.0" cy="79.1" r="2.5" fill="#dc2626" /><circle cx="281.2" cy="94.5" r="2.5" fill="#dc2626" /><circle cx="290.4" cy="87.5" r="2.5" fill="#dc2626" /><circle cx="299.6" cy="80.1" r="2.5" fill="#dc2626" /><circle cx="308.8" cy="81.7" r="2.5" fill="#dc2626" /><circle cx="318.0" cy="93.7" r="2.5" fill="#dc2626" /><text x="532" y="58" font-size="12" font-weight="600">runs</text><line x1="532" y1="72" x2="550" y2="72" stroke="#2563eb" stroke-width="2" /><text x="556" y="76" font-size="11">v0.6.2 (n=50)</text><line x1="532" y1="88" x2="550" y2="88" stroke="#dc2626" stroke-width="2" /><text x="556" y="92" font-size="11">v0.6.2b (n=28)</text></svg>
