<svg xmlns="http://www.w3.org/2000/svg" viewBox="0 0 720 380" width="720" height="380" font-family="ui-sans-serif, system-ui, sans-serif" font-size="11"><rect width="720" height="380" fill="white" /><text x="360" y="22" text-anchor="middle" font-size="14" font-weight="600">v0.6.2 vs v0.6.2b — f1.locality</text><text x="295" y="368" text-anchor="middle" font-size="12">training step</text><text transform="translate(20, 190) rotate(-90)" text-anchor="middle" font-size="12">f1.locality</text><line x1="70" y1="297.4720582104201" x2="520" y2="297.4720582104201" stroke="#e5e7eb" stroke-width="1" /><text x="64" y="300.4720582104201" text-anchor="end">0.750</text><line x1="70" y1="215.14764002354468" x2="520" y2="215.14764002354468" stroke="#e5e7eb" stroke-width="1" /><text x="64" y="218.14764002354468" text-anchor="end">0.800</text><line x1="70" y1="132.82322183666935" x2="520" y2="132.82322183666935" stroke="#e5e7eb" stroke-width="1" /><text x="64" y="135.82322183666935" text-anchor="end">0.850</text><line x1="70" y1="50.49880364979413" x2="520" y2="50.49880364979413" stroke="#e5e7eb" stroke-width="1" /><text x="64" y="53.49880364979413" text-anchor="end">0.900</text><line x1="152.65306122448982" y1="330" x2="152.65306122448982" y2="334" stroke="#374151" stroke-width="1" /><text x="152.65306122448982" y="348" text-anchor="middle">20,000</text><line x1="244.48979591836735" y1="330" x2="244.48979591836735" y2="334" stroke="#374151" stroke-width="1" /><text x="244.48979591836735" y="348" text-anchor="middle">40,000</text><line x1="336.3265306122449" y1="330" x2="336.3265306122449" y2="334" stroke="#374151" stroke-width="1" /><text x="336.3265306122449" y="348" text-anchor="middle">60,000</text><line x1="428.16326530612247" y1="330" x2="428.16326530612247" y2="334" stroke="#374151" stroke-width="1" /><text x="428.16326530612247" y="348" text-anchor="middle">80,000</text><line x1="520" y1="330" x2="520" y2="334" stroke="#374151" stroke-width="1" /><text x="520" y="348" text-anchor="middle">100,000</text><rect x="70" y="50" width="450" height="280" fill="none" stroke="#9ca3af" stroke-width="1" /><path d="M70.0,191.3 L79.2,144.9 L88.4,145.8 L97.6,113.5 L106.7,98.0 L115.9,91.8 L125.1,91.2 L134.3,92.3 L143.5,84.2 L152.7,94.3 L161.8,87.6 L171.0,86.0 L180.2,88.2 L189.4,82.6 L198.6,83.5 L207.8,278.0 L216.9,296.9 L226.1,282.8 L235.3,103.9 L244.5,194.1 L253.7,192.8 L262.9,269.9 L272.0,97.5 L281.2,197.1 L290.4,246.3 L299.6,300.2 L308.8,302.9 L318.0,78.2 L327.1,76.3 L336.3,74.4 L345.5,75.5 L354.7,77.4 L363.9,76.1 L373.1,76.3 L382.2,73.8 L391.4,286.8 L400.6,305.5 L409.8,296.0 L419.0,299.6 L428.2,83.0 L437.3,85.5 L446.5,79.3 L455.7,78.8 L464.9,77.6 L474.1,75.3 L483.3,76.4 L492.4,70.9 L501.6,67.2 L510.8,67.1 L520.0,62.7" fill="none" stroke="#2563eb" stroke-width="1.5" stroke-linejoin="round" /><circle cx="70.0" cy="191.3" r="2.5" fill="#2563eb" /><circle cx="79.2" cy="144.9" r="2.5" fill="#2563eb" /><circle cx="88.4" cy="145.8" r="2.5" fill="#2563eb" /><circle cx="97.6" cy="113.5" r="2.5" fill="#2563eb" /><circle cx="106.7" cy="98.0" r="2.5" fill="#2563eb" /><circle cx="115.9" cy="91.8" r="2.5" fill="#2563eb" /><circle cx="125.1" cy="91.2" r="2.5" fill="#2563eb" /><circle cx="134.3" cy="92.3" r="2.5" fill="#2563eb" /><circle cx="143.5" cy="84.2" r="2.5" fill="#2563eb" /><circle cx="152.7" cy="94.3" r="2.5" fill="#2563eb" /><circle cx="161.8" cy="87.6" r="2.5" fill="#2563eb" /><circle cx="171.0" cy="86.0" r="2.5" fill="#2563eb" /><circle cx="180.2" cy="88.2" r="2.5" fill="#2563eb" /><circle cx="189.4" cy="82.6" r="2.5" fill="#2563eb" /><circle cx="198.6" cy="83.5" r="2.5" fill="#2563eb" /><circle cx="207.8" cy="278.0" r="2.5" fill="#2563eb" /><circle cx="216.9" cy="296.9" r="2.5" fill="#2563eb" /><circle cx="226.1" cy="282.8" r="2.5" fill="#2563eb" /><circle cx="235.3" cy="103.9" r="2.5" fill="#2563eb" /><circle cx="244.5" cy="194.1" r="2.5" fill="#2563eb" /><circle cx="253.7" cy="192.8" r="2.5" fill="#2563eb" /><circle cx="262.9" cy="269.9" r="2.5" fill="#2563eb" /><circle cx="272.0" cy="97.5" r="2.5" fill="#2563eb" /><circle cx="281.2" cy="197.1" r="2.5" fill="#2563eb" /><circle cx="290.4" cy="246.3" r="2.5" fill="#2563eb" /><circle cx="299.6" cy="300.2" r="2.5" fill="#2563eb" /><circle cx="308.8" cy="302.9" r="2.5" fill="#2563eb" /><circle cx="318.0" cy="78.2" r="2.5" fill="#2563eb" /><circle cx="327.1" cy="76.3" r="2.5" fill="#2563eb" /><circle cx="336.3" cy="74.4" r="2.5" fill="#2563eb" /><circle cx="345.5" cy="75.5" r="2.5" fill="#2563eb" /><circle cx="354.7" cy="77.4" r="2.5" fill="#2563eb" /><circle cx="363.9" cy="76.1" r="2.5" fill="#2563eb" /><circle cx="373.1" cy="76.3" r="2.5" fill="#2563eb" /><circle cx="382.2" cy="73.8" r="2.5" fill="#2563eb" /><circle cx="391.4" cy="286.8" r="2.5" fill="#2563eb" /><circle cx="400.6" cy="305.5" r="2.5" fill="#2563eb" /><circle cx="409.8" cy="296.0" r="2.5" fill="#2563eb" /><circle cx="419.0" cy="299.6" r="2.5" fill="#2563eb" /><circle cx="428.2" cy="83.0" r="2.5" fill="#2563eb" /><circle cx="437.3" cy="85.5" r="2.5" fill="#2563eb" /><circle cx="446.5" cy="79.3" r="2.5" fill="#2563eb" /><circle cx="455.7" cy="78.8" r="2.5" fill="#2563eb" /><circle cx="464.9" cy="77.6" r="2.5" fill="#2563eb" /><circle cx="474.1" cy="75.3" r="2.5" fill="#2563eb" /><circle cx="483.3" cy="76.4" r="2.5" fill="#2563eb" /><circle cx="492.4" cy="70.9" r="2.5" fill="#2563eb" /><circle cx="501.6" cy="67.2" r="2.5" fill="#2563eb" /><circle cx="510.8" cy="67.1" r="2.5" fill="#2563eb" /><circle cx="520.0" cy="62.7" r="2.5" fill="#2563eb" /><path d="M70.0,242.8 L79.2,138.7 L88.4,139.6 L97.6,120.2 L106.7,101.0 L115.9,103.0 L125.1,89.2 L134.3,97.0 L143.5,96.5 L152.7,98.3 L161.8,97.2 L171.0,93.1 L180.2,89.7 L189.4,88.7 L198.6,93.0 L207.8,306.2 L216.9,314.7 L226.1,294.4 L235.3,97.0 L244.5,305.5 L253.7,317.3 L262.9,313.4 L272.0,309.5 L281.2,273.7 L290.4,297.2 L299.6,312.2 L308.8,313.5 L318.0,261.2" fill="none" stroke="#dc2626" stroke-width="1.5" stroke-linejoin="round" /><circle cx="70.0" cy="242.8" r="2.5" fill="#dc2626" /><circle cx="79.2" cy="138.7" r="2.5" fill="#dc2626" /><circle cx="88.4" cy="139.6" r="2.5" fill="#dc2626" /><circle cx="97.6" cy="120.2" r="2.5" fill="#dc2626" /><circle cx="106.7" cy="101.0" r="2.5" fill="#dc2626" /><circle cx="115.9" cy="103.0" r="2.5" fill="#dc2626" /><circle cx="125.1" cy="89.2" r="2.5" fill="#dc2626" /><circle cx="134.3" cy="97.0" r="2.5" fill="#dc2626" /><circle cx="143.5" cy="96.5" r="2.5" fill="#dc2626" /><circle cx="152.7" cy="98.3" r="2.5" fill="#dc2626" /><circle cx="161.8" cy="97.2" r="2.5" fill="#dc2626" /><circle cx="171.0" cy="93.1" r="2.5" fill="#dc2626" /><circle cx="180.2" cy="89.7" r="2.5" fill="#dc2626" /><circle cx="189.4" cy="88.7" r="2.5" fill="#dc2626" /><circle cx="198.6" cy="93.0" r="2.5" fill="#dc2626" /><circle cx="207.8" cy="306.2" r="2.5" fill="#dc2626" /><circle cx="216.9" cy="314.7" r="2.5" fill="#dc2626" /><circle cx="226.1" cy="294.4" r="2.5" fill="#dc2626" /><circle cx="235.3" cy="97.0" r="2.5" fill="#dc2626" /><circle cx="244.5" cy="305.5" r="2.5" fill="#dc2626" /><circle cx="253.7" cy="317.3" r="2.5" fill="#dc2626" /><circle cx="262.9" cy="313.4" r="2.5" fill="#dc2626" /><circle cx="272.0" cy="309.5" r="2.5" fill="#dc2626" /><circle cx="281.2" cy="273.7" r="2.5" fill="#dc2626" /><circle cx="290.4" cy="297.2" r="2.5" fill="#dc2626" /><circle cx="299.6" cy="312.2" r="2.5" fill="#dc2626" /><circle cx="308.8" cy="313.5" r="2.5" fill="#dc2626" /><circle cx="318.0" cy="261.2" r="2.5" fill="#dc2626" /><text x="532" y="58" font-size="12" font-weight="600">runs</text><line x1="532" y1="72" x2="550" y2="72" stroke="#2563eb" stroke-width="2" /><text x="556" y="76" font-size="11">v0.6.2 (n=50)</text><line x1="532" y1="88" x2="550" y2="88" stroke="#dc2626" stroke-width="2" /><text x="556" y="92" font-size="11">v0.6.2b (n=28)</text></svg>
