<svg xmlns="http://www.w3.org/2000/svg" viewBox="0 0 720 380" width="720" height="380" font-family="ui-sans-serif, system-ui, sans-serif" font-size="11"><rect width="720" height="380" fill="white" /><text x="360" y="22" text-anchor="middle" font-size="14" font-weight="600">v0.6.2 vs v0.6.2b — f1.house_number</text><text x="295" y="368" text-anchor="middle" font-size="12">training step</text><text transform="translate(20, 190) rotate(-90)" text-anchor="middle" font-size="12">(log scale) f1.house_number</text><text x="152.65306122448982" y="348" text-anchor="middle">20,000</text><line x1="244.48979591836735" y1="330" x2="244.48979591836735" y2="334" stroke="#374151" stroke-width="1" /><text x="244.48979591836735" y="348" text-anchor="middle">40,000</text><line x1="336.3265306122449" y1="330" x2="336.3265306122449" y2="334" stroke="#374151" stroke-width="1" /><text x="336.3265306122449" y="348" text-anchor="middle">60,000</text><line x1="428.16326530612247" y1="330" x2="428.16326530612247" y2="334" stroke="#374151" stroke-width="1" /><text x="428.16326530612247" y="348" text-anchor="middle">80,000</text><line x1="520" y1="330" x2="520" y2="334" stroke="#374151" stroke-width="1" /><text x="520" y="348" text-anchor="middle">100,000</text><line x1="70" y1="50.0" x2="520" y2="50.0" stroke="#e5e7eb" stroke-width="1" />
<text x="64" y="53.0" text-anchor="end">1</text>
<rect x="70" y="50" width="450" height="280" fill="none" stroke="#9ca3af" stroke-width="1" /><path d="M70.0,195.6 L79.2,218.0 L88.4,232.8 L97.6,74.8 L106.7,99.9 L115.9,98.2 L125.1,84.1 L134.3,68.7 L143.5,68.7 L152.7,67.2 L161.8,79.5 L171.0,65.7 L180.2,65.7 L189.4,65.7 L198.6,68.7 L207.8,65.7 L216.9,68.7 L226.1,76.5 L235.3,74.9 L244.5,67.2 L253.7,65.7 L262.9,68.7 L272.0,67.2 L281.2,67.2 L290.4,65.7 L299.6,67.2 L308.8,65.7 L318.0,62.6 L327.1,71.7 L336.3,64.2 L345.5,62.6 L354.7,64.2 L363.9,85.5 L373.1,97.7 L382.2,102.4 L391.4,65.7 L400.6,68.7 L409.8,70.3 L419.0,70.3 L428.2,68.7 L437.3,74.9 L446.5,85.5 L455.7,64.2 L464.9,70.3 L474.1,67.2 L483.3,71.8 L492.4,68.7 L501.6,82.6 L510.8,70.3 L520.0,79.5" fill="none" stroke="#2563eb" stroke-width="1.5" stroke-linejoin="round" /><circle cx="70.0" cy="195.6" r="2.5" fill="#2563eb" /><circle cx="79.2" cy="218.0" r="2.5" fill="#2563eb" /><circle cx="88.4" cy="232.8" r="2.5" fill="#2563eb" /><circle cx="97.6" cy="74.8" r="2.5" fill="#2563eb" /><circle cx="106.7" cy="99.9" r="2.5" fill="#2563eb" /><circle cx="115.9" cy="98.2" r="2.5" fill="#2563eb" /><circle cx="125.1" cy="84.1" r="2.5" fill="#2563eb" /><circle cx="134.3" cy="68.7" r="2.5" fill="#2563eb" /><circle cx="143.5" cy="68.7" r="2.5" fill="#2563eb" /><circle cx="152.7" cy="67.2" r="2.5" fill="#2563eb" /><circle cx="161.8" cy="79.5" r="2.5" fill="#2563eb" /><circle cx="171.0" cy="65.7" r="2.5" fill="#2563eb" /><circle cx="180.2" cy="65.7" r="2.5" fill="#2563eb" /><circle cx="189.4" cy="65.7" r="2.5" fill="#2563eb" /><circle cx="198.6" cy="68.7" r="2.5" fill="#2563eb" /><circle cx="207.8" cy="65.7" r="2.5" fill="#2563eb" /><circle cx="216.9" cy="68.7" r="2.5" fill="#2563eb" /><circle cx="226.1" cy="76.5" r="2.5" fill="#2563eb" /><circle cx="235.3" cy="74.9" r="2.5" fill="#2563eb" /><circle cx="244.5" cy="67.2" r="2.5" fill="#2563eb" /><circle cx="253.7" cy="65.7" r="2.5" fill="#2563eb" /><circle cx="262.9" cy="68.7" r="2.5" fill="#2563eb" /><circle cx="272.0" cy="67.2" r="2.5" fill="#2563eb" /><circle cx="281.2" cy="67.2" r="2.5" fill="#2563eb" /><circle cx="290.4" cy="65.7" r="2.5" fill="#2563eb" /><circle cx="299.6" cy="67.2" r="2.5" fill="#2563eb" /><circle cx="308.8" cy="65.7" r="2.5" fill="#2563eb" /><circle cx="318.0" cy="62.6" r="2.5" fill="#2563eb" /><circle cx="327.1" cy="71.7" r="2.5" fill="#2563eb" /><circle cx="336.3" cy="64.2" r="2.5" fill="#2563eb" /><circle cx="345.5" cy="62.6" r="2.5" fill="#2563eb" /><circle cx="354.7" cy="64.2" r="2.5" fill="#2563eb" /><circle cx="363.9" cy="85.5" r="2.5" fill="#2563eb" /><circle cx="373.1" cy="97.7" r="2.5" fill="#2563eb" /><circle cx="382.2" cy="102.4" r="2.5" fill="#2563eb" /><circle cx="391.4" cy="65.7" r="2.5" fill="#2563eb" /><circle cx="400.6" cy="68.7" r="2.5" fill="#2563eb" /><circle cx="409.8" cy="70.3" r="2.5" fill="#2563eb" /><circle cx="419.0" cy="70.3" r="2.5" fill="#2563eb" /><circle cx="428.2" cy="68.7" r="2.5" fill="#2563eb" /><circle cx="437.3" cy="74.9" r="2.5" fill="#2563eb" /><circle cx="446.5" cy="85.5" r="2.5" fill="#2563eb" /><circle cx="455.7" cy="64.2" r="2.5" fill="#2563eb" /><circle cx="464.9" cy="70.3" r="2.5" fill="#2563eb" /><circle cx="474.1" cy="67.2" r="2.5" fill="#2563eb" /><circle cx="483.3" cy="71.8" r="2.5" fill="#2563eb" /><circle cx="492.4" cy="68.7" r="2.5" fill="#2563eb" /><circle cx="501.6" cy="82.6" r="2.5" fill="#2563eb" /><circle cx="510.8" cy="70.3" r="2.5" fill="#2563eb" /><circle cx="520.0" cy="79.5" r="2.5" fill="#2563eb" /><path d="M70.0,317.2 L79.2,262.2 L88.4,189.7 L97.6,65.7 L106.7,105.7 L115.9,71.7 L125.1,68.7 L134.3,70.1 L143.5,74.6 L152.7,73.4 L161.8,73.4 L171.0,87.2 L180.2,88.7 L189.4,87.2 L198.6,96.3 L207.8,76.5 L216.9,85.7 L226.1,90.3 L235.3,97.7 L244.5,83.6 L253.7,79.0 L262.9,77.6 L272.0,65.7 L281.2,68.7 L290.4,65.7 L299.6,65.7 L308.8,71.8 L318.0,67.2" fill="none" stroke="#dc2626" stroke-width="1.5" stroke-linejoin="round" /><circle cx="70.0" cy="317.2" r="2.5" fill="#dc2626" /><circle cx="79.2" cy="262.2" r="2.5" fill="#dc2626" /><circle cx="88.4" cy="189.7" r="2.5" fill="#dc2626" /><circle cx="97.6" cy="65.7" r="2.5" fill="#dc2626" /><circle cx="106.7" cy="105.7" r="2.5" fill="#dc2626" /><circle cx="115.9" cy="71.7" r="2.5" fill="#dc2626" /><circle cx="125.1" cy="68.7" r="2.5" fill="#dc2626" /><circle cx="134.3" cy="70.1" r="2.5" fill="#dc2626" /><circle cx="143.5" cy="74.6" r="2.5" fill="#dc2626" /><circle cx="152.7" cy="73.4" r="2.5" fill="#dc2626" /><circle cx="161.8" cy="73.4" r="2.5" fill="#dc2626" /><circle cx="171.0" cy="87.2" r="2.5" fill="#dc2626" /><circle cx="180.2" cy="88.7" r="2.5" fill="#dc2626" /><circle cx="189.4" cy="87.2" r="2.5" fill="#dc2626" /><circle cx="198.6" cy="96.3" r="2.5" fill="#dc2626" /><circle cx="207.8" cy="76.5" r="2.5" fill="#dc2626" /><circle cx="216.9" cy="85.7" r="2.5" fill="#dc2626" /><circle cx="226.1" cy="90.3" r="2.5" fill="#dc2626" /><circle cx="235.3" cy="97.7" r="2.5" fill="#dc2626" /><circle cx="244.5" cy="83.6" r="2.5" fill="#dc2626" /><circle cx="253.7" cy="79.0" r="2.5" fill="#dc2626" /><circle cx="262.9" cy="77.6" r="2.5" fill="#dc2626" /><circle cx="272.0" cy="65.7" r="2.5" fill="#dc2626" /><circle cx="281.2" cy="68.7" r="2.5" fill="#dc2626" /><circle cx="290.4" cy="65.7" r="2.5" fill="#dc2626" /><circle cx="299.6" cy="65.7" r="2.5" fill="#dc2626" /><circle cx="308.8" cy="71.8" r="2.5" fill="#dc2626" /><circle cx="318.0" cy="67.2" r="2.5" fill="#dc2626" /><text x="532" y="58" font-size="12" font-weight="600">runs</text><line x1="532" y1="72" x2="550" y2="72" stroke="#2563eb" stroke-width="2" /><text x="556" y="76" font-size="11">v0.6.2 (n=50)</text><line x1="532" y1="88" x2="550" y2="88" stroke="#dc2626" stroke-width="2" /><text x="556" y="92" font-size="11">v0.6.2b (n=28)</text></svg>
