<svg xmlns="http://www.w3.org/2000/svg" viewBox="0 0 720 380" width="720" height="380" font-family="ui-sans-serif, system-ui, sans-serif" font-size="11"><rect width="720" height="380" fill="white" /><text x="360" y="22" text-anchor="middle" font-size="14" font-weight="600">v0.6.2 vs v0.6.2b — f1.venue</text><text x="295" y="368" text-anchor="middle" font-size="12">training step</text><text transform="translate(20, 190) rotate(-90)" text-anchor="middle" font-size="12">f1.venue</text><line x1="70" y1="283.3332352862388" x2="520" y2="283.3332352862388" stroke="#e5e7eb" stroke-width="1" /><text x="64" y="286.3332352862388" text-anchor="end">0.700</text><line x1="70" y1="209.7979144332501" x2="520" y2="209.7979144332501" stroke="#e5e7eb" stroke-width="1" /><text x="64" y="212.7979144332501" text-anchor="end">0.800</text><line x1="70" y1="136.26259358026138" x2="520" y2="136.26259358026138" stroke="#e5e7eb" stroke-width="1" /><text x="64" y="139.26259358026138" text-anchor="end">0.900</text><line x1="70" y1="62.72727272727269" x2="520" y2="62.72727272727269" stroke="#e5e7eb" stroke-width="1" /><text x="64" y="65.72727272727269" text-anchor="end">1</text><line x1="152.65306122448982" y1="330" x2="152.65306122448982" y2="334" stroke="#374151" stroke-width="1" /><text x="152.65306122448982" y="348" text-anchor="middle">20,000</text><line x1="244.48979591836735" y1="330" x2="244.48979591836735" y2="334" stroke="#374151" stroke-width="1" /><text x="244.48979591836735" y="348" text-anchor="middle">40,000</text><line x1="336.3265306122449" y1="330" x2="336.3265306122449" y2="334" stroke="#374151" stroke-width="1" /><text x="336.3265306122449" y="348" text-anchor="middle">60,000</text><line x1="428.16326530612247" y1="330" x2="428.16326530612247" y2="334" stroke="#374151" stroke-width="1" /><text x="428.16326530612247" y="348" text-anchor="middle">80,000</text><line x1="520" y1="330" x2="520" y2="334" stroke="#374151" stroke-width="1" /><text x="520" y="348" text-anchor="middle">100,000</text><rect x="70" y="50" width="450" height="280" fill="none" stroke="#9ca3af" stroke-width="1" /><path d="M70.0,185.3 L79.2,285.4 L88.4,81.1 L97.6,62.7 L106.7,283.3 L115.9,62.7 L125.1,62.7 L134.3,62.7 L143.5,62.7 L152.7,220.3 L161.8,62.7 L171.0,62.7 L180.2,62.7 L189.4,136.3 L198.6,136.3 L207.8,62.7 L216.9,62.7 L226.1,62.7 L235.3,62.7 L244.5,62.7 L253.7,62.7 L262.9,62.7 L272.0,62.7 L281.2,62.7 L290.4,62.7 L299.6,62.7 L308.8,62.7 L318.0,62.7 L327.1,62.7 L336.3,62.7 L345.5,62.7 L354.7,136.3 L363.9,62.7 L373.1,185.3 L382.2,136.3 L391.4,62.7 L400.6,62.7 L409.8,62.7 L419.0,62.7 L428.2,62.7 L437.3,62.7 L446.5,136.3 L455.7,62.7 L464.9,62.7 L474.1,62.7 L483.3,62.7 L492.4,220.3 L501.6,62.7 L510.8,62.7 L520.0,185.3" fill="none" stroke="#2563eb" stroke-width="1.5" stroke-linejoin="round" /><circle cx="70.0" cy="185.3" r="2.5" fill="#2563eb" /><circle cx="79.2" cy="285.4" r="2.5" fill="#2563eb" /><circle cx="88.4" cy="81.1" r="2.5" fill="#2563eb" /><circle cx="97.6" cy="62.7" r="2.5" fill="#2563eb" /><circle cx="106.7" cy="283.3" r="2.5" fill="#2563eb" /><circle cx="115.9" cy="62.7" r="2.5" fill="#2563eb" /><circle cx="125.1" cy="62.7" r="2.5" fill="#2563eb" /><circle cx="134.3" cy="62.7" r="2.5" fill="#2563eb" /><circle cx="143.5" cy="62.7" r="2.5" fill="#2563eb" /><circle cx="152.7" cy="220.3" r="2.5" fill="#2563eb" /><circle cx="161.8" cy="62.7" r="2.5" fill="#2563eb" /><circle cx="171.0" cy="62.7" r="2.5" fill="#2563eb" /><circle cx="180.2" cy="62.7" r="2.5" fill="#2563eb" /><circle cx="189.4" cy="136.3" r="2.5" fill="#2563eb" /><circle cx="198.6" cy="136.3" r="2.5" fill="#2563eb" /><circle cx="207.8" cy="62.7" r="2.5" fill="#2563eb" /><circle cx="216.9" cy="62.7" r="2.5" fill="#2563eb" /><circle cx="226.1" cy="62.7" r="2.5" fill="#2563eb" /><circle cx="235.3" cy="62.7" r="2.5" fill="#2563eb" /><circle cx="244.5" cy="62.7" r="2.5" fill="#2563eb" /><circle cx="253.7" cy="62.7" r="2.5" fill="#2563eb" /><circle cx="262.9" cy="62.7" r="2.5" fill="#2563eb" /><circle cx="272.0" cy="62.7" r="2.5" fill="#2563eb" /><circle cx="281.2" cy="62.7" r="2.5" fill="#2563eb" /><circle cx="290.4" cy="62.7" r="2.5" fill="#2563eb" /><circle cx="299.6" cy="62.7" r="2.5" fill="#2563eb" /><circle cx="308.8" cy="62.7" r="2.5" fill="#2563eb" /><circle cx="318.0" cy="62.7" r="2.5" fill="#2563eb" /><circle cx="327.1" cy="62.7" r="2.5" fill="#2563eb" /><circle cx="336.3" cy="62.7" r="2.5" fill="#2563eb" /><circle cx="345.5" cy="62.7" r="2.5" fill="#2563eb" /><circle cx="354.7" cy="136.3" r="2.5" fill="#2563eb" /><circle cx="363.9" cy="62.7" r="2.5" fill="#2563eb" /><circle cx="373.1" cy="185.3" r="2.5" fill="#2563eb" /><circle cx="382.2" cy="136.3" r="2.5" fill="#2563eb" /><circle cx="391.4" cy="62.7" r="2.5" fill="#2563eb" /><circle cx="400.6" cy="62.7" r="2.5" fill="#2563eb" /><circle cx="409.8" cy="62.7" r="2.5" fill="#2563eb" /><circle cx="419.0" cy="62.7" r="2.5" fill="#2563eb" /><circle cx="428.2" cy="62.7" r="2.5" fill="#2563eb" /><circle cx="437.3" cy="62.7" r="2.5" fill="#2563eb" /><circle cx="446.5" cy="136.3" r="2.5" fill="#2563eb" /><circle cx="455.7" cy="62.7" r="2.5" fill="#2563eb" /><circle cx="464.9" cy="62.7" r="2.5" fill="#2563eb" /><circle cx="474.1" cy="62.7" r="2.5" fill="#2563eb" /><circle cx="483.3" cy="62.7" r="2.5" fill="#2563eb" /><circle cx="492.4" cy="220.3" r="2.5" fill="#2563eb" /><circle cx="501.6" cy="62.7" r="2.5" fill="#2563eb" /><circle cx="510.8" cy="62.7" r="2.5" fill="#2563eb" /><circle cx="520.0" cy="185.3" r="2.5" fill="#2563eb" /><path d="M70.0,276.4 L79.2,136.3 L88.4,246.6 L97.6,62.7 L106.7,307.8 L115.9,62.7 L125.1,62.7 L134.3,136.3 L143.5,307.8 L152.7,62.7 L161.8,317.3 L171.0,136.3 L180.2,136.3 L189.4,185.3 L198.6,267.0 L207.8,136.3 L216.9,185.3 L226.1,62.7 L235.3,136.3 L244.5,136.3 L253.7,136.3 L262.9,185.3 L272.0,62.7 L281.2,62.7 L290.4,62.7 L299.6,62.7 L308.8,62.7 L318.0,185.3" fill="none" stroke="#dc2626" stroke-width="1.5" stroke-linejoin="round" /><circle cx="70.0" cy="276.4" r="2.5" fill="#dc2626" /><circle cx="79.2" cy="136.3" r="2.5" fill="#dc2626" /><circle cx="88.4" cy="246.6" r="2.5" fill="#dc2626" /><circle cx="97.6" cy="62.7" r="2.5" fill="#dc2626" /><circle cx="106.7" cy="307.8" r="2.5" fill="#dc2626" /><circle cx="115.9" cy="62.7" r="2.5" fill="#dc2626" /><circle cx="125.1" cy="62.7" r="2.5" fill="#dc2626" /><circle cx="134.3" cy="136.3" r="2.5" fill="#dc2626" /><circle cx="143.5" cy="307.8" r="2.5" fill="#dc2626" /><circle cx="152.7" cy="62.7" r="2.5" fill="#dc2626" /><circle cx="161.8" cy="317.3" r="2.5" fill="#dc2626" /><circle cx="171.0" cy="136.3" r="2.5" fill="#dc2626" /><circle cx="180.2" cy="136.3" r="2.5" fill="#dc2626" /><circle cx="189.4" cy="185.3" r="2.5" fill="#dc2626" /><circle cx="198.6" cy="267.0" r="2.5" fill="#dc2626" /><circle cx="207.8" cy="136.3" r="2.5" fill="#dc2626" /><circle cx="216.9" cy="185.3" r="2.5" fill="#dc2626" /><circle cx="226.1" cy="62.7" r="2.5" fill="#dc2626" /><circle cx="235.3" cy="136.3" r="2.5" fill="#dc2626" /><circle cx="244.5" cy="136.3" r="2.5" fill="#dc2626" /><circle cx="253.7" cy="136.3" r="2.5" fill="#dc2626" /><circle cx="262.9" cy="185.3" r="2.5" fill="#dc2626" /><circle cx="272.0" cy="62.7" r="2.5" fill="#dc2626" /><circle cx="281.2" cy="62.7" r="2.5" fill="#dc2626" /><circle cx="290.4" cy="62.7" r="2.5" fill="#dc2626" /><circle cx="299.6" cy="62.7" r="2.5" fill="#dc2626" /><circle cx="308.8" cy="62.7" r="2.5" fill="#dc2626" /><circle cx="318.0" cy="185.3" r="2.5" fill="#dc2626" /><text x="532" y="58" font-size="12" font-weight="600">runs</text><line x1="532" y1="72" x2="550" y2="72" stroke="#2563eb" stroke-width="2" /><text x="556" y="76" font-size="11">v0.6.2 (n=50)</text><line x1="532" y1="88" x2="550" y2="88" stroke="#dc2626" stroke-width="2" /><text x="556" y="92" font-size="11">v0.6.2b (n=28)</text></svg>
