<svg xmlns="http://www.w3.org/2000/svg" viewBox="0 0 720 380" width="720" height="380" font-family="ui-sans-serif, system-ui, sans-serif" font-size="11"><rect width="720" height="380" fill="white" /><text x="360" y="22" text-anchor="middle" font-size="14" font-weight="600">v0.6.2 vs v0.6.2b — f1.dependent_locality</text><text x="295" y="368" text-anchor="middle" font-size="12">training step</text><text transform="translate(20, 190) rotate(-90)" text-anchor="middle" font-size="12">(log scale) f1.dependent_locality</text><text x="152.65306122448982" y="348" text-anchor="middle">20,000</text><line x1="244.48979591836735" y1="330" x2="244.48979591836735" y2="334" stroke="#374151" stroke-width="1" /><text x="244.48979591836735" y="348" text-anchor="middle">40,000</text><line x1="336.3265306122449" y1="330" x2="336.3265306122449" y2="334" stroke="#374151" stroke-width="1" /><text x="336.3265306122449" y="348" text-anchor="middle">60,000</text><line x1="428.16326530612247" y1="330" x2="428.16326530612247" y2="334" stroke="#374151" stroke-width="1" /><text x="428.16326530612247" y="348" text-anchor="middle">80,000</text><line x1="520" y1="330" x2="520" y2="334" stroke="#374151" stroke-width="1" /><text x="520" y="348" text-anchor="middle">100,000</text><line x1="70" y1="330.0" x2="520" y2="330.0" stroke="#e5e7eb" stroke-width="1" />
<text x="64" y="333.0" text-anchor="end">0.000</text>
<line x1="70" y1="319.5" x2="520" y2="319.5" stroke="#e5e7eb" stroke-width="1" />
<text x="64" y="322.5" text-anchor="end">0.000</text>
<line x1="70" y1="313.3" x2="520" y2="313.3" stroke="#e5e7eb" stroke-width="1" />
<text x="64" y="316.3" text-anchor="end">0.000</text>
<line x1="70" y1="305.5" x2="520" y2="305.5" stroke="#e5e7eb" stroke-width="1" />
<text x="64" y="308.5" text-anchor="end">0.000</text>
<line x1="70" y1="300.4" x2="520" y2="300.4" stroke="#e5e7eb" stroke-width="1" />
<text x="64" y="303.4" text-anchor="end">0.000</text>
<line x1="70" y1="295.0" x2="520" y2="295.0" stroke="#e5e7eb" stroke-width="1" />
<text x="64" y="298.0" text-anchor="end">0.000</text>
<line x1="70" y1="284.5" x2="520" y2="284.5" stroke="#e5e7eb" stroke-width="1" />
<text x="64" y="287.5" text-anchor="end">0.000</text>
<line x1="70" y1="278.3" x2="520" y2="278.3" stroke="#e5e7eb" stroke-width="1" />
<text x="64" y="281.3" text-anchor="end">0.000</text>
<line x1="70" y1="270.5" x2="520" y2="270.5" stroke="#e5e7eb" stroke-width="1" />
<text x="64" y="273.5" text-anchor="end">0.000</text>
<line x1="70" y1="265.4" x2="520" y2="265.4" stroke="#e5e7eb" stroke-width="1" />
<text x="64" y="268.4" text-anchor="end">0.000</text>
<line x1="70" y1="260.0" x2="520" y2="260.0" stroke="#e5e7eb" stroke-width="1" />
<text x="64" y="263.0" text-anchor="end">0.000</text>
<line x1="70" y1="249.5" x2="520" y2="249.5" stroke="#e5e7eb" stroke-width="1" />
<text x="64" y="252.5" text-anchor="end">0.000</text>
<line x1="70" y1="243.3" x2="520" y2="243.3" stroke="#e5e7eb" stroke-width="1" />
<text x="64" y="246.3" text-anchor="end">0.000</text>
<line x1="70" y1="235.5" x2="520" y2="235.5" stroke="#e5e7eb" stroke-width="1" />
<text x="64" y="238.5" text-anchor="end">0.000</text>
<line x1="70" y1="230.4" x2="520" y2="230.4" stroke="#e5e7eb" stroke-width="1" />
<text x="64" y="233.4" text-anchor="end">0.000</text>
<line x1="70" y1="225.0" x2="520" y2="225.0" stroke="#e5e7eb" stroke-width="1" />
<text x="64" y="228.0" text-anchor="end">0.000</text>
<line x1="70" y1="214.5" x2="520" y2="214.5" stroke="#e5e7eb" stroke-width="1" />
<text x="64" y="217.5" text-anchor="end">0.000</text>
<line x1="70" y1="208.3" x2="520" y2="208.3" stroke="#e5e7eb" stroke-width="1" />
<text x="64" y="211.3" text-anchor="end">0.000</text>
<line x1="70" y1="200.5" x2="520" y2="200.5" stroke="#e5e7eb" stroke-width="1" />
<text x="64" y="203.5" text-anchor="end">0.000</text>
<line x1="70" y1="195.4" x2="520" y2="195.4" stroke="#e5e7eb" stroke-width="1" />
<text x="64" y="198.4" text-anchor="end">0.000</text>
<line x1="70" y1="190.0" x2="520" y2="190.0" stroke="#e5e7eb" stroke-width="1" />
<text x="64" y="193.0" text-anchor="end">0.000</text>
<line x1="70" y1="179.5" x2="520" y2="179.5" stroke="#e5e7eb" stroke-width="1" />
<text x="64" y="182.5" text-anchor="end">0.000</text>
<line x1="70" y1="173.3" x2="520" y2="173.3" stroke="#e5e7eb" stroke-width="1" />
<text x="64" y="176.3" text-anchor="end">0.000</text>
<line x1="70" y1="165.5" x2="520" y2="165.5" stroke="#e5e7eb" stroke-width="1" />
<text x="64" y="168.5" text-anchor="end">0.000</text>
<line x1="70" y1="160.4" x2="520" y2="160.4" stroke="#e5e7eb" stroke-width="1" />
<text x="64" y="163.4" text-anchor="end">0.000</text>
<line x1="70" y1="155.0" x2="520" y2="155.0" stroke="#e5e7eb" stroke-width="1" />
<text x="64" y="158.0" text-anchor="end">0.000</text>
<line x1="70" y1="144.5" x2="520" y2="144.5" stroke="#e5e7eb" stroke-width="1" />
<text x="64" y="147.5" text-anchor="end">0.000</text>
<line x1="70" y1="138.3" x2="520" y2="138.3" stroke="#e5e7eb" stroke-width="1" />
<text x="64" y="141.3" text-anchor="end">0.000</text>
<line x1="70" y1="130.5" x2="520" y2="130.5" stroke="#e5e7eb" stroke-width="1" />
<text x="64" y="133.5" text-anchor="end">0.001</text>
<line x1="70" y1="125.4" x2="520" y2="125.4" stroke="#e5e7eb" stroke-width="1" />
<text x="64" y="128.4" text-anchor="end">0.001</text>
<line x1="70" y1="120.0" x2="520" y2="120.0" stroke="#e5e7eb" stroke-width="1" />
<text x="64" y="123.0" text-anchor="end">0.001</text>
<line x1="70" y1="109.5" x2="520" y2="109.5" stroke="#e5e7eb" stroke-width="1" />
<text x="64" y="112.5" text-anchor="end">0.002</text>
<line x1="70" y1="103.3" x2="520" y2="103.3" stroke="#e5e7eb" stroke-width="1" />
<text x="64" y="106.3" text-anchor="end">0.003</text>
<line x1="70" y1="95.5" x2="520" y2="95.5" stroke="#e5e7eb" stroke-width="1" />
<text x="64" y="98.5" text-anchor="end">0.005</text>
<line x1="70" y1="90.4" x2="520" y2="90.4" stroke="#e5e7eb" stroke-width="1" />
<text x="64" y="93.4" text-anchor="end">0.007</text>
<line x1="70" y1="85.0" x2="520" y2="85.0" stroke="#e5e7eb" stroke-width="1" />
<text x="64" y="88.0" text-anchor="end">0.010</text>
<line x1="70" y1="74.5" x2="520" y2="74.5" stroke="#e5e7eb" stroke-width="1" />
<text x="64" y="77.5" text-anchor="end">0.020</text>
<line x1="70" y1="68.3" x2="520" y2="68.3" stroke="#e5e7eb" stroke-width="1" />
<text x="64" y="71.3" text-anchor="end">0.030</text>
<line x1="70" y1="60.5" x2="520" y2="60.5" stroke="#e5e7eb" stroke-width="1" />
<text x="64" y="63.5" text-anchor="end">0.050</text>
<line x1="70" y1="55.4" x2="520" y2="55.4" stroke="#e5e7eb" stroke-width="1" />
<text x="64" y="58.4" text-anchor="end">0.070</text>
<line x1="70" y1="50.0" x2="520" y2="50.0" stroke="#e5e7eb" stroke-width="1" />
<text x="64" y="53.0" text-anchor="end">0.100</text>
<rect x="70" y="50" width="450" height="280" fill="none" stroke="#9ca3af" stroke-width="1" /><path d="M70.0,97.0 L79.2,83.1 L88.4,51.0 L97.6,97.0 L106.7,97.0 L115.9,97.0 L125.1,97.0 L134.3,97.0 L143.5,97.0 L152.7,97.0 L161.8,97.0 L171.0,97.0 L180.2,97.0 L189.4,97.0 L198.6,97.0 L207.8,53.8 L216.9,52.9 L226.1,52.5 L235.3,55.1 L244.5,50.7 L253.7,51.2 L262.9,52.2 L272.0,61.4 L281.2,74.2 L290.4,58.0 L299.6,51.3 L308.8,51.5 L318.0,97.0 L327.1,97.0 L336.3,97.0 L345.5,97.0 L354.7,97.0 L363.9,97.0 L373.1,97.0 L382.2,97.0 L391.4,52.7 L400.6,51.8 L409.8,52.1 L419.0,55.1 L428.2,82.7 L437.3,82.7 L446.5,97.0 L455.7,97.0 L464.9,97.0 L474.1,97.0 L483.3,97.0 L492.4,97.0 L501.6,97.0 L510.8,97.0 L520.0,97.0" fill="none" stroke="#2563eb" stroke-width="1.5" stroke-linejoin="round" /><circle cx="70.0" cy="97.0" r="2.5" fill="#2563eb" /><circle cx="79.2" cy="83.1" r="2.5" fill="#2563eb" /><circle cx="88.4" cy="51.0" r="2.5" fill="#2563eb" /><circle cx="97.6" cy="97.0" r="2.5" fill="#2563eb" /><circle cx="106.7" cy="97.0" r="2.5" fill="#2563eb" /><circle cx="115.9" cy="97.0" r="2.5" fill="#2563eb" /><circle cx="125.1" cy="97.0" r="2.5" fill="#2563eb" /><circle cx="134.3" cy="97.0" r="2.5" fill="#2563eb" /><circle cx="143.5" cy="97.0" r="2.5" fill="#2563eb" /><circle cx="152.7" cy="97.0" r="2.5" fill="#2563eb" /><circle cx="161.8" cy="97.0" r="2.5" fill="#2563eb" /><circle cx="171.0" cy="97.0" r="2.5" fill="#2563eb" /><circle cx="180.2" cy="97.0" r="2.5" fill="#2563eb" /><circle cx="189.4" cy="97.0" r="2.5" fill="#2563eb" /><circle cx="198.6" cy="97.0" r="2.5" fill="#2563eb" /><circle cx="207.8" cy="53.8" r="2.5" fill="#2563eb" /><circle cx="216.9" cy="52.9" r="2.5" fill="#2563eb" /><circle cx="226.1" cy="52.5" r="2.5" fill="#2563eb" /><circle cx="235.3" cy="55.1" r="2.5" fill="#2563eb" /><circle cx="244.5" cy="50.7" r="2.5" fill="#2563eb" /><circle cx="253.7" cy="51.2" r="2.5" fill="#2563eb" /><circle cx="262.9" cy="52.2" r="2.5" fill="#2563eb" /><circle cx="272.0" cy="61.4" r="2.5" fill="#2563eb" /><circle cx="281.2" cy="74.2" r="2.5" fill="#2563eb" /><circle cx="290.4" cy="58.0" r="2.5" fill="#2563eb" /><circle cx="299.6" cy="51.3" r="2.5" fill="#2563eb" /><circle cx="308.8" cy="51.5" r="2.5" fill="#2563eb" /><circle cx="318.0" cy="97.0" r="2.5" fill="#2563eb" /><circle cx="327.1" cy="97.0" r="2.5" fill="#2563eb" /><circle cx="336.3" cy="97.0" r="2.5" fill="#2563eb" /><circle cx="345.5" cy="97.0" r="2.5" fill="#2563eb" /><circle cx="354.7" cy="97.0" r="2.5" fill="#2563eb" /><circle cx="363.9" cy="97.0" r="2.5" fill="#2563eb" /><circle cx="373.1" cy="97.0" r="2.5" fill="#2563eb" /><circle cx="382.2" cy="97.0" r="2.5" fill="#2563eb" /><circle cx="391.4" cy="52.7" r="2.5" fill="#2563eb" /><circle cx="400.6" cy="51.8" r="2.5" fill="#2563eb" /><circle cx="409.8" cy="52.1" r="2.5" fill="#2563eb" /><circle cx="419.0" cy="55.1" r="2.5" fill="#2563eb" /><circle cx="428.2" cy="82.7" r="2.5" fill="#2563eb" /><circle cx="437.3" cy="82.7" r="2.5" fill="#2563eb" /><circle cx="446.5" cy="97.0" r="2.5" fill="#2563eb" /><circle cx="455.7" cy="97.0" r="2.5" fill="#2563eb" /><circle cx="464.9" cy="97.0" r="2.5" fill="#2563eb" /><circle cx="474.1" cy="97.0" r="2.5" fill="#2563eb" /><circle cx="483.3" cy="97.0" r="2.5" fill="#2563eb" /><circle cx="492.4" cy="97.0" r="2.5" fill="#2563eb" /><circle cx="501.6" cy="97.0" r="2.5" fill="#2563eb" /><circle cx="510.8" cy="97.0" r="2.5" fill="#2563eb" /><circle cx="520.0" cy="97.0" r="2.5" fill="#2563eb" /><path d="M70.0,97.0 L79.2,83.7 L88.4,53.4 L97.6,97.0 L106.7,97.0 L115.9,97.0 L125.1,97.0 L134.3,97.0 L143.5,97.0 L152.7,97.0 L161.8,97.0 L171.0,97.0 L180.2,97.0 L189.4,97.0 L198.6,97.0 L207.8,53.8 L216.9,52.9 L226.1,53.5 L235.3,73.8 L244.5,53.1 L253.7,52.2 L262.9,52.5 L272.0,52.6 L281.2,59.4 L290.4,53.7 L299.6,52.0 L308.8,52.2 L318.0,61.0" fill="none" stroke="#dc2626" stroke-width="1.5" stroke-linejoin="round" /><circle cx="70.0" cy="97.0" r="2.5" fill="#dc2626" /><circle cx="79.2" cy="83.7" r="2.5" fill="#dc2626" /><circle cx="88.4" cy="53.4" r="2.5" fill="#dc2626" /><circle cx="97.6" cy="97.0" r="2.5" fill="#dc2626" /><circle cx="106.7" cy="97.0" r="2.5" fill="#dc2626" /><circle cx="115.9" cy="97.0" r="2.5" fill="#dc2626" /><circle cx="125.1" cy="97.0" r="2.5" fill="#dc2626" /><circle cx="134.3" cy="97.0" r="2.5" fill="#dc2626" /><circle cx="143.5" cy="97.0" r="2.5" fill="#dc2626" /><circle cx="152.7" cy="97.0" r="2.5" fill="#dc2626" /><circle cx="161.8" cy="97.0" r="2.5" fill="#dc2626" /><circle cx="171.0" cy="97.0" r="2.5" fill="#dc2626" /><circle cx="180.2" cy="97.0" r="2.5" fill="#dc2626" /><circle cx="189.4" cy="97.0" r="2.5" fill="#dc2626" /><circle cx="198.6" cy="97.0" r="2.5" fill="#dc2626" /><circle cx="207.8" cy="53.8" r="2.5" fill="#dc2626" /><circle cx="216.9" cy="52.9" r="2.5" fill="#dc2626" /><circle cx="226.1" cy="53.5" r="2.5" fill="#dc2626" /><circle cx="235.3" cy="73.8" r="2.5" fill="#dc2626" /><circle cx="244.5" cy="53.1" r="2.5" fill="#dc2626" /><circle cx="253.7" cy="52.2" r="2.5" fill="#dc2626" /><circle cx="262.9" cy="52.5" r="2.5" fill="#dc2626" /><circle cx="272.0" cy="52.6" r="2.5" fill="#dc2626" /><circle cx="281.2" cy="59.4" r="2.5" fill="#dc2626" /><circle cx="290.4" cy="53.7" r="2.5" fill="#dc2626" /><circle cx="299.6" cy="52.0" r="2.5" fill="#dc2626" /><circle cx="308.8" cy="52.2" r="2.5" fill="#dc2626" /><circle cx="318.0" cy="61.0" r="2.5" fill="#dc2626" /><text x="532" y="58" font-size="12" font-weight="600">runs</text><line x1="532" y1="72" x2="550" y2="72" stroke="#2563eb" stroke-width="2" /><text x="556" y="76" font-size="11">v0.6.2 (n=50)</text><line x1="532" y1="88" x2="550" y2="88" stroke="#dc2626" stroke-width="2" /><text x="556" y="92" font-size="11">v0.6.2b (n=28)</text></svg>
