<svg xmlns="http://www.w3.org/2000/svg" viewBox="0 0 720 380" width="720" height="380" font-family="ui-sans-serif, system-ui, sans-serif" font-size="11"><rect width="720" height="380" fill="white" /><text x="360" y="22" text-anchor="middle" font-size="14" font-weight="600">v0.6.2 vs v0.6.2b — f1.dependent_locality</text><text x="295" y="368" text-anchor="middle" font-size="12">training step</text><text transform="translate(20, 190) rotate(-90)" text-anchor="middle" font-size="12">f1.dependent_locality</text><line x1="70" y1="317.27272727272725" x2="520" y2="317.27272727272725" stroke="#e5e7eb" stroke-width="1" /><text x="64" y="320.27272727272725" text-anchor="end">0.000</text><line x1="70" y1="261.2375371733449" x2="520" y2="261.2375371733449" stroke="#e5e7eb" stroke-width="1" /><text x="64" y="264.2375371733449" text-anchor="end">0.025</text><line x1="70" y1="205.20234707396241" x2="520" y2="205.20234707396241" stroke="#e5e7eb" stroke-width="1" /><text x="64" y="208.20234707396241" text-anchor="end">0.050</text><line x1="70" y1="149.16715697458002" x2="520" y2="149.16715697458002" stroke="#e5e7eb" stroke-width="1" /><text x="64" y="152.16715697458002" text-anchor="end">0.075</text><line x1="70" y1="93.1319668751976" x2="520" y2="93.1319668751976" stroke="#e5e7eb" stroke-width="1" /><text x="64" y="96.1319668751976" text-anchor="end">0.100</text><line x1="152.65306122448982" y1="330" x2="152.65306122448982" y2="334" stroke="#374151" stroke-width="1" /><text x="152.65306122448982" y="348" text-anchor="middle">20,000</text><line x1="244.48979591836735" y1="330" x2="244.48979591836735" y2="334" stroke="#374151" stroke-width="1" /><text x="244.48979591836735" y="348" text-anchor="middle">40,000</text><line x1="336.3265306122449" y1="330" x2="336.3265306122449" y2="334" stroke="#374151" stroke-width="1" /><text x="336.3265306122449" y="348" text-anchor="middle">60,000</text><line x1="428.16326530612247" y1="330" x2="428.16326530612247" y2="334" stroke="#374151" stroke-width="1" /><text x="428.16326530612247" y="348" text-anchor="middle">80,000</text><line x1="520" y1="330" x2="520" y2="334" stroke="#374151" stroke-width="1" /><text x="520" y="348" text-anchor="middle">100,000</text><rect x="70" y="50" width="450" height="280" fill="none" stroke="#9ca3af" stroke-width="1" /><path d="M70.0,317.3 L79.2,298.3 L88.4,67.3 L97.6,317.3 L106.7,317.3 L115.9,317.3 L125.1,317.3 L134.3,317.3 L143.5,317.3 L152.7,317.3 L161.8,317.3 L171.0,317.3 L180.2,317.3 L189.4,317.3 L198.6,317.3 L207.8,111.7 L216.9,99.2 L226.1,92.7 L235.3,130.1 L244.5,62.7 L253.7,70.7 L262.9,87.0 L272.0,197.7 L281.2,273.1 L290.4,164.2 L299.6,73.4 L308.8,76.5 L318.0,317.3 L327.1,317.3 L336.3,317.3 L345.5,317.3 L354.7,317.3 L363.9,317.3 L373.1,317.3 L382.2,317.3 L391.4,94.8 L400.6,81.6 L409.8,86.8 L419.0,130.4 L428.2,297.4 L437.3,297.4 L446.5,317.3 L455.7,317.3 L464.9,317.3 L474.1,317.3 L483.3,317.3 L492.4,317.3 L501.6,317.3 L510.8,317.3 L520.0,317.3" fill="none" stroke="#2563eb" stroke-width="1.5" stroke-linejoin="round" /><circle cx="70.0" cy="317.3" r="2.5" fill="#2563eb" /><circle cx="79.2" cy="298.3" r="2.5" fill="#2563eb" /><circle cx="88.4" cy="67.3" r="2.5" fill="#2563eb" /><circle cx="97.6" cy="317.3" r="2.5" fill="#2563eb" /><circle cx="106.7" cy="317.3" r="2.5" fill="#2563eb" /><circle cx="115.9" cy="317.3" r="2.5" fill="#2563eb" /><circle cx="125.1" cy="317.3" r="2.5" fill="#2563eb" /><circle cx="134.3" cy="317.3" r="2.5" fill="#2563eb" /><circle cx="143.5" cy="317.3" r="2.5" fill="#2563eb" /><circle cx="152.7" cy="317.3" r="2.5" fill="#2563eb" /><circle cx="161.8" cy="317.3" r="2.5" fill="#2563eb" /><circle cx="171.0" cy="317.3" r="2.5" fill="#2563eb" /><circle cx="180.2" cy="317.3" r="2.5" fill="#2563eb" /><circle cx="189.4" cy="317.3" r="2.5" fill="#2563eb" /><circle cx="198.6" cy="317.3" r="2.5" fill="#2563eb" /><circle cx="207.8" cy="111.7" r="2.5" fill="#2563eb" /><circle cx="216.9" cy="99.2" r="2.5" fill="#2563eb" /><circle cx="226.1" cy="92.7" r="2.5" fill="#2563eb" /><circle cx="235.3" cy="130.1" r="2.5" fill="#2563eb" /><circle cx="244.5" cy="62.7" r="2.5" fill="#2563eb" /><circle cx="253.7" cy="70.7" r="2.5" fill="#2563eb" /><circle cx="262.9" cy="87.0" r="2.5" fill="#2563eb" /><circle cx="272.0" cy="197.7" r="2.5" fill="#2563eb" /><circle cx="281.2" cy="273.1" r="2.5" fill="#2563eb" /><circle cx="290.4" cy="164.2" r="2.5" fill="#2563eb" /><circle cx="299.6" cy="73.4" r="2.5" fill="#2563eb" /><circle cx="308.8" cy="76.5" r="2.5" fill="#2563eb" /><circle cx="318.0" cy="317.3" r="2.5" fill="#2563eb" /><circle cx="327.1" cy="317.3" r="2.5" fill="#2563eb" /><circle cx="336.3" cy="317.3" r="2.5" fill="#2563eb" /><circle cx="345.5" cy="317.3" r="2.5" fill="#2563eb" /><circle cx="354.7" cy="317.3" r="2.5" fill="#2563eb" /><circle cx="363.9" cy="317.3" r="2.5" fill="#2563eb" /><circle cx="373.1" cy="317.3" r="2.5" fill="#2563eb" /><circle cx="382.2" cy="317.3" r="2.5" fill="#2563eb" /><circle cx="391.4" cy="94.8" r="2.5" fill="#2563eb" /><circle cx="400.6" cy="81.6" r="2.5" fill="#2563eb" /><circle cx="409.8" cy="86.8" r="2.5" fill="#2563eb" /><circle cx="419.0" cy="130.4" r="2.5" fill="#2563eb" /><circle cx="428.2" cy="297.4" r="2.5" fill="#2563eb" /><circle cx="437.3" cy="297.4" r="2.5" fill="#2563eb" /><circle cx="446.5" cy="317.3" r="2.5" fill="#2563eb" /><circle cx="455.7" cy="317.3" r="2.5" fill="#2563eb" /><circle cx="464.9" cy="317.3" r="2.5" fill="#2563eb" /><circle cx="474.1" cy="317.3" r="2.5" fill="#2563eb" /><circle cx="483.3" cy="317.3" r="2.5" fill="#2563eb" /><circle cx="492.4" cy="317.3" r="2.5" fill="#2563eb" /><circle cx="501.6" cy="317.3" r="2.5" fill="#2563eb" /><circle cx="510.8" cy="317.3" r="2.5" fill="#2563eb" /><circle cx="520.0" cy="317.3" r="2.5" fill="#2563eb" /><path d="M70.0,317.3 L79.2,299.5 L88.4,106.0 L97.6,317.3 L106.7,317.3 L115.9,317.3 L125.1,317.3 L134.3,317.3 L143.5,317.3 L152.7,317.3 L161.8,317.3 L171.0,317.3 L180.2,317.3 L189.4,317.3 L198.6,317.3 L207.8,111.8 L216.9,98.0 L226.1,108.0 L235.3,271.6 L244.5,102.4 L253.7,87.1 L262.9,92.1 L272.0,94.6 L281.2,178.9 L290.4,111.2 L299.6,84.5 L308.8,87.8 L318.0,194.3" fill="none" stroke="#dc2626" stroke-width="1.5" stroke-linejoin="round" /><circle cx="70.0" cy="317.3" r="2.5" fill="#dc2626" /><circle cx="79.2" cy="299.5" r="2.5" fill="#dc2626" /><circle cx="88.4" cy="106.0" r="2.5" fill="#dc2626" /><circle cx="97.6" cy="317.3" r="2.5" fill="#dc2626" /><circle cx="106.7" cy="317.3" r="2.5" fill="#dc2626" /><circle cx="115.9" cy="317.3" r="2.5" fill="#dc2626" /><circle cx="125.1" cy="317.3" r="2.5" fill="#dc2626" /><circle cx="134.3" cy="317.3" r="2.5" fill="#dc2626" /><circle cx="143.5" cy="317.3" r="2.5" fill="#dc2626" /><circle cx="152.7" cy="317.3" r="2.5" fill="#dc2626" /><circle cx="161.8" cy="317.3" r="2.5" fill="#dc2626" /><circle cx="171.0" cy="317.3" r="2.5" fill="#dc2626" /><circle cx="180.2" cy="317.3" r="2.5" fill="#dc2626" /><circle cx="189.4" cy="317.3" r="2.5" fill="#dc2626" /><circle cx="198.6" cy="317.3" r="2.5" fill="#dc2626" /><circle cx="207.8" cy="111.8" r="2.5" fill="#dc2626" /><circle cx="216.9" cy="98.0" r="2.5" fill="#dc2626" /><circle cx="226.1" cy="108.0" r="2.5" fill="#dc2626" /><circle cx="235.3" cy="271.6" r="2.5" fill="#dc2626" /><circle cx="244.5" cy="102.4" r="2.5" fill="#dc2626" /><circle cx="253.7" cy="87.1" r="2.5" fill="#dc2626" /><circle cx="262.9" cy="92.1" r="2.5" fill="#dc2626" /><circle cx="272.0" cy="94.6" r="2.5" fill="#dc2626" /><circle cx="281.2" cy="178.9" r="2.5" fill="#dc2626" /><circle cx="290.4" cy="111.2" r="2.5" fill="#dc2626" /><circle cx="299.6" cy="84.5" r="2.5" fill="#dc2626" /><circle cx="308.8" cy="87.8" r="2.5" fill="#dc2626" /><circle cx="318.0" cy="194.3" r="2.5" fill="#dc2626" /><text x="532" y="58" font-size="12" font-weight="600">runs</text><line x1="532" y1="72" x2="550" y2="72" stroke="#2563eb" stroke-width="2" /><text x="556" y="76" font-size="11">v0.6.2 (n=50)</text><line x1="532" y1="88" x2="550" y2="88" stroke="#dc2626" stroke-width="2" /><text x="556" y="92" font-size="11">v0.6.2b (n=28)</text></svg>
