<svg xmlns="http://www.w3.org/2000/svg" viewBox="0 0 720 380" width="720" height="380" font-family="ui-sans-serif, system-ui, sans-serif" font-size="11"><rect width="720" height="380" fill="white" /><text x="360" y="22" text-anchor="middle" font-size="14" font-weight="600">v0.6.2 vs v0.6.2b — val_loss (same noise pattern across runs)</text><text x="295" y="368" text-anchor="middle" font-size="12">training step</text><text transform="translate(20, 190) rotate(-90)" text-anchor="middle" font-size="12">val_loss</text><line x1="70" y1="283.5847561561424" x2="520" y2="283.5847561561424" stroke="#e5e7eb" stroke-width="1" /><text x="64" y="286.5847561561424" text-anchor="end">0.200</text><line x1="70" y1="195.96063110650178" x2="520" y2="195.96063110650178" stroke="#e5e7eb" stroke-width="1" /><text x="64" y="198.96063110650178" text-anchor="end">0.400</text><line x1="70" y1="108.33650605686114" x2="520" y2="108.33650605686114" stroke="#e5e7eb" stroke-width="1" /><text x="64" y="111.33650605686114" text-anchor="end">0.600</text><line x1="152.65306122448982" y1="330" x2="152.65306122448982" y2="334" stroke="#374151" stroke-width="1" /><text x="152.65306122448982" y="348" text-anchor="middle">20,000</text><line x1="244.48979591836735" y1="330" x2="244.48979591836735" y2="334" stroke="#374151" stroke-width="1" /><text x="244.48979591836735" y="348" text-anchor="middle">40,000</text><line x1="336.3265306122449" y1="330" x2="336.3265306122449" y2="334" stroke="#374151" stroke-width="1" /><text x="336.3265306122449" y="348" text-anchor="middle">60,000</text><line x1="428.16326530612247" y1="330" x2="428.16326530612247" y2="334" stroke="#374151" stroke-width="1" /><text x="428.16326530612247" y="348" text-anchor="middle">80,000</text><line x1="520" y1="330" x2="520" y2="334" stroke="#374151" stroke-width="1" /><text x="520" y="348" text-anchor="middle">100,000</text><rect x="70" y="50" width="450" height="280" fill="none" stroke="#9ca3af" stroke-width="1" /><path d="M70.0,225.4 L79.2,238.7 L88.4,224.2 L97.6,288.7 L106.7,286.8 L115.9,289.1 L125.1,288.1 L134.3,295.3 L143.5,284.1 L152.7,296.5 L161.8,288.4 L171.0,304.8 L180.2,300.2 L189.4,304.3 L198.6,295.9 L207.8,179.3 L216.9,134.1 L226.1,140.2 L235.3,284.2 L244.5,254.8 L253.7,247.0 L262.9,169.6 L272.0,296.3 L281.2,215.5 L290.4,196.7 L299.6,113.6 L308.8,97.5 L318.0,309.9 L327.1,308.2 L336.3,307.4 L345.5,311.0 L354.7,312.2 L363.9,310.9 L373.1,310.8 L382.2,311.7 L391.4,150.9 L400.6,118.1 L409.8,119.6 L419.0,98.5 L428.2,305.4 L437.3,307.4 L446.5,304.8 L455.7,311.1 L464.9,306.0 L474.1,307.4 L483.3,306.7 L492.4,317.3 L501.6,315.5 L510.8,316.3 L520.0,315.9" fill="none" stroke="#2563eb" stroke-width="1.5" stroke-linejoin="round" /><circle cx="70.0" cy="225.4" r="2.5" fill="#2563eb" /><circle cx="79.2" cy="238.7" r="2.5" fill="#2563eb" /><circle cx="88.4" cy="224.2" r="2.5" fill="#2563eb" /><circle cx="97.6" cy="288.7" r="2.5" fill="#2563eb" /><circle cx="106.7" cy="286.8" r="2.5" fill="#2563eb" /><circle cx="115.9" cy="289.1" r="2.5" fill="#2563eb" /><circle cx="125.1" cy="288.1" r="2.5" fill="#2563eb" /><circle cx="134.3" cy="295.3" r="2.5" fill="#2563eb" /><circle cx="143.5" cy="284.1" r="2.5" fill="#2563eb" /><circle cx="152.7" cy="296.5" r="2.5" fill="#2563eb" /><circle cx="161.8" cy="288.4" r="2.5" fill="#2563eb" /><circle cx="171.0" cy="304.8" r="2.5" fill="#2563eb" /><circle cx="180.2" cy="300.2" r="2.5" fill="#2563eb" /><circle cx="189.4" cy="304.3" r="2.5" fill="#2563eb" /><circle cx="198.6" cy="295.9" r="2.5" fill="#2563eb" /><circle cx="207.8" cy="179.3" r="2.5" fill="#2563eb" /><circle cx="216.9" cy="134.1" r="2.5" fill="#2563eb" /><circle cx="226.1" cy="140.2" r="2.5" fill="#2563eb" /><circle cx="235.3" cy="284.2" r="2.5" fill="#2563eb" /><circle cx="244.5" cy="254.8" r="2.5" fill="#2563eb" /><circle cx="253.7" cy="247.0" r="2.5" fill="#2563eb" /><circle cx="262.9" cy="169.6" r="2.5" fill="#2563eb" /><circle cx="272.0" cy="296.3" r="2.5" fill="#2563eb" /><circle cx="281.2" cy="215.5" r="2.5" fill="#2563eb" /><circle cx="290.4" cy="196.7" r="2.5" fill="#2563eb" /><circle cx="299.6" cy="113.6" r="2.5" fill="#2563eb" /><circle cx="308.8" cy="97.5" r="2.5" fill="#2563eb" /><circle cx="318.0" cy="309.9" r="2.5" fill="#2563eb" /><circle cx="327.1" cy="308.2" r="2.5" fill="#2563eb" /><circle cx="336.3" cy="307.4" r="2.5" fill="#2563eb" /><circle cx="345.5" cy="311.0" r="2.5" fill="#2563eb" /><circle cx="354.7" cy="312.2" r="2.5" fill="#2563eb" /><circle cx="363.9" cy="310.9" r="2.5" fill="#2563eb" /><circle cx="373.1" cy="310.8" r="2.5" fill="#2563eb" /><circle cx="382.2" cy="311.7" r="2.5" fill="#2563eb" /><circle cx="391.4" cy="150.9" r="2.5" fill="#2563eb" /><circle cx="400.6" cy="118.1" r="2.5" fill="#2563eb" /><circle cx="409.8" cy="119.6" r="2.5" fill="#2563eb" /><circle cx="419.0" cy="98.5" r="2.5" fill="#2563eb" /><circle cx="428.2" cy="305.4" r="2.5" fill="#2563eb" /><circle cx="437.3" cy="307.4" r="2.5" fill="#2563eb" /><circle cx="446.5" cy="304.8" r="2.5" fill="#2563eb" /><circle cx="455.7" cy="311.1" r="2.5" fill="#2563eb" /><circle cx="464.9" cy="306.0" r="2.5" fill="#2563eb" /><circle cx="474.1" cy="307.4" r="2.5" fill="#2563eb" /><circle cx="483.3" cy="306.7" r="2.5" fill="#2563eb" /><circle cx="492.4" cy="317.3" r="2.5" fill="#2563eb" /><circle cx="501.6" cy="315.5" r="2.5" fill="#2563eb" /><circle cx="510.8" cy="316.3" r="2.5" fill="#2563eb" /><circle cx="520.0" cy="315.9" r="2.5" fill="#2563eb" /><path d="M70.0,187.9 L79.2,244.7 L88.4,232.5 L97.6,294.6 L106.7,288.7 L115.9,299.2 L125.1,294.4 L134.3,298.2 L143.5,288.4 L152.7,295.5 L161.8,291.7 L171.0,304.1 L180.2,300.9 L189.4,301.3 L198.6,303.4 L207.8,161.0 L216.9,120.5 L226.1,136.9 L235.3,293.0 L244.5,136.9 L253.7,85.9 L262.9,91.6 L272.0,83.8 L281.2,121.6 L290.4,109.0 L299.6,66.4 L308.8,62.7 L318.0,128.3" fill="none" stroke="#dc2626" stroke-width="1.5" stroke-linejoin="round" /><circle cx="70.0" cy="187.9" r="2.5" fill="#dc2626" /><circle cx="79.2" cy="244.7" r="2.5" fill="#dc2626" /><circle cx="88.4" cy="232.5" r="2.5" fill="#dc2626" /><circle cx="97.6" cy="294.6" r="2.5" fill="#dc2626" /><circle cx="106.7" cy="288.7" r="2.5" fill="#dc2626" /><circle cx="115.9" cy="299.2" r="2.5" fill="#dc2626" /><circle cx="125.1" cy="294.4" r="2.5" fill="#dc2626" /><circle cx="134.3" cy="298.2" r="2.5" fill="#dc2626" /><circle cx="143.5" cy="288.4" r="2.5" fill="#dc2626" /><circle cx="152.7" cy="295.5" r="2.5" fill="#dc2626" /><circle cx="161.8" cy="291.7" r="2.5" fill="#dc2626" /><circle cx="171.0" cy="304.1" r="2.5" fill="#dc2626" /><circle cx="180.2" cy="300.9" r="2.5" fill="#dc2626" /><circle cx="189.4" cy="301.3" r="2.5" fill="#dc2626" /><circle cx="198.6" cy="303.4" r="2.5" fill="#dc2626" /><circle cx="207.8" cy="161.0" r="2.5" fill="#dc2626" /><circle cx="216.9" cy="120.5" r="2.5" fill="#dc2626" /><circle cx="226.1" cy="136.9" r="2.5" fill="#dc2626" /><circle cx="235.3" cy="293.0" r="2.5" fill="#dc2626" /><circle cx="244.5" cy="136.9" r="2.5" fill="#dc2626" /><circle cx="253.7" cy="85.9" r="2.5" fill="#dc2626" /><circle cx="262.9" cy="91.6" r="2.5" fill="#dc2626" /><circle cx="272.0" cy="83.8" r="2.5" fill="#dc2626" /><circle cx="281.2" cy="121.6" r="2.5" fill="#dc2626" /><circle cx="290.4" cy="109.0" r="2.5" fill="#dc2626" /><circle cx="299.6" cy="66.4" r="2.5" fill="#dc2626" /><circle cx="308.8" cy="62.7" r="2.5" fill="#dc2626" /><circle cx="318.0" cy="128.3" r="2.5" fill="#dc2626" /><text x="532" y="58" font-size="12" font-weight="600">runs</text><line x1="532" y1="72" x2="550" y2="72" stroke="#2563eb" stroke-width="2" /><text x="556" y="76" font-size="11">v0.6.2 (n=50)</text><line x1="532" y1="88" x2="550" y2="88" stroke="#dc2626" stroke-width="2" /><text x="556" y="92" font-size="11">v0.6.2b (n=28)</text></svg>
