<svg xmlns="http://www.w3.org/2000/svg" viewBox="0 0 720 380" width="720" height="380" font-family="ui-sans-serif, system-ui, sans-serif" font-size="11"><rect width="720" height="380" fill="white" /><text x="360" y="22" text-anchor="middle" font-size="14" font-weight="600">v0.6.2 vs v0.6.2b — val macro_f1 (stable despite val_loss volatility)</text><text x="295" y="368" text-anchor="middle" font-size="12">training step</text><text transform="translate(20, 190) rotate(-90)" text-anchor="middle" font-size="12">macro_f1</text><line x1="70" y1="321.8105535261421" x2="520" y2="321.8105535261421" stroke="#e5e7eb" stroke-width="1" /><text x="64" y="324.8105535261421" text-anchor="end">0.360</text><line x1="70" y1="241.20973197348235" x2="520" y2="241.20973197348235" stroke="#e5e7eb" stroke-width="1" /><text x="64" y="244.20973197348235" text-anchor="end">0.380</text><line x1="70" y1="160.60891042082258" x2="520" y2="160.60891042082258" stroke="#e5e7eb" stroke-width="1" /><text x="64" y="163.60891042082258" text-anchor="end">0.400</text><line x1="70" y1="80.00808886816301" x2="520" y2="80.00808886816301" stroke="#e5e7eb" stroke-width="1" /><text x="64" y="83.00808886816301" text-anchor="end">0.420</text><line x1="152.65306122448982" y1="330" x2="152.65306122448982" y2="334" stroke="#374151" stroke-width="1" /><text x="152.65306122448982" y="348" text-anchor="middle">20,000</text><line x1="244.48979591836735" y1="330" x2="244.48979591836735" y2="334" stroke="#374151" stroke-width="1" /><text x="244.48979591836735" y="348" text-anchor="middle">40,000</text><line x1="336.3265306122449" y1="330" x2="336.3265306122449" y2="334" stroke="#374151" stroke-width="1" /><text x="336.3265306122449" y="348" text-anchor="middle">60,000</text><line x1="428.16326530612247" y1="330" x2="428.16326530612247" y2="334" stroke="#374151" stroke-width="1" /><text x="428.16326530612247" y="348" text-anchor="middle">80,000</text><line x1="520" y1="330" x2="520" y2="334" stroke="#374151" stroke-width="1" /><text x="520" y="348" text-anchor="middle">100,000</text><rect x="70" y="50" width="450" height="280" fill="none" stroke="#9ca3af" stroke-width="1" /><path d="M70.0,279.3 L79.2,235.1 L88.4,129.8 L97.6,119.6 L106.7,188.0 L115.9,106.5 L125.1,101.8 L134.3,98.3 L143.5,94.9 L152.7,147.7 L161.8,97.8 L171.0,88.1 L180.2,87.9 L189.4,113.0 L198.6,118.2 L207.8,100.1 L216.9,102.2 L226.1,99.7 L235.3,76.4 L244.5,72.9 L253.7,73.7 L262.9,85.8 L272.0,76.0 L281.2,103.5 L290.4,92.0 L299.6,87.6 L308.8,89.3 L318.0,81.9 L327.1,79.1 L336.3,80.7 L345.5,78.3 L354.7,103.5 L363.9,80.5 L373.1,121.7 L382.2,100.4 L391.4,80.3 L400.6,81.4 L409.8,81.7 L419.0,146.4 L428.2,92.0 L437.3,84.9 L446.5,108.7 L455.7,82.7 L464.9,86.5 L474.1,83.9 L483.3,79.6 L492.4,114.8 L501.6,62.7 L510.8,65.3 L520.0,103.4" fill="none" stroke="#2563eb" stroke-width="1.5" stroke-linejoin="round" /><circle cx="70.0" cy="279.3" r="2.5" fill="#2563eb" /><circle cx="79.2" cy="235.1" r="2.5" fill="#2563eb" /><circle cx="88.4" cy="129.8" r="2.5" fill="#2563eb" /><circle cx="97.6" cy="119.6" r="2.5" fill="#2563eb" /><circle cx="106.7" cy="188.0" r="2.5" fill="#2563eb" /><circle cx="115.9" cy="106.5" r="2.5" fill="#2563eb" /><circle cx="125.1" cy="101.8" r="2.5" fill="#2563eb" /><circle cx="134.3" cy="98.3" r="2.5" fill="#2563eb" /><circle cx="143.5" cy="94.9" r="2.5" fill="#2563eb" /><circle cx="152.7" cy="147.7" r="2.5" fill="#2563eb" /><circle cx="161.8" cy="97.8" r="2.5" fill="#2563eb" /><circle cx="171.0" cy="88.1" r="2.5" fill="#2563eb" /><circle cx="180.2" cy="87.9" r="2.5" fill="#2563eb" /><circle cx="189.4" cy="113.0" r="2.5" fill="#2563eb" /><circle cx="198.6" cy="118.2" r="2.5" fill="#2563eb" /><circle cx="207.8" cy="100.1" r="2.5" fill="#2563eb" /><circle cx="216.9" cy="102.2" r="2.5" fill="#2563eb" /><circle cx="226.1" cy="99.7" r="2.5" fill="#2563eb" /><circle cx="235.3" cy="76.4" r="2.5" fill="#2563eb" /><circle cx="244.5" cy="72.9" r="2.5" fill="#2563eb" /><circle cx="253.7" cy="73.7" r="2.5" fill="#2563eb" /><circle cx="262.9" cy="85.8" r="2.5" fill="#2563eb" /><circle cx="272.0" cy="76.0" r="2.5" fill="#2563eb" /><circle cx="281.2" cy="103.5" r="2.5" fill="#2563eb" /><circle cx="290.4" cy="92.0" r="2.5" fill="#2563eb" /><circle cx="299.6" cy="87.6" r="2.5" fill="#2563eb" /><circle cx="308.8" cy="89.3" r="2.5" fill="#2563eb" /><circle cx="318.0" cy="81.9" r="2.5" fill="#2563eb" /><circle cx="327.1" cy="79.1" r="2.5" fill="#2563eb" /><circle cx="336.3" cy="80.7" r="2.5" fill="#2563eb" /><circle cx="345.5" cy="78.3" r="2.5" fill="#2563eb" /><circle cx="354.7" cy="103.5" r="2.5" fill="#2563eb" /><circle cx="363.9" cy="80.5" r="2.5" fill="#2563eb" /><circle cx="373.1" cy="121.7" r="2.5" fill="#2563eb" /><circle cx="382.2" cy="100.4" r="2.5" fill="#2563eb" /><circle cx="391.4" cy="80.3" r="2.5" fill="#2563eb" /><circle cx="400.6" cy="81.4" r="2.5" fill="#2563eb" /><circle cx="409.8" cy="81.7" r="2.5" fill="#2563eb" /><circle cx="419.0" cy="146.4" r="2.5" fill="#2563eb" /><circle cx="428.2" cy="92.0" r="2.5" fill="#2563eb" /><circle cx="437.3" cy="84.9" r="2.5" fill="#2563eb" /><circle cx="446.5" cy="108.7" r="2.5" fill="#2563eb" /><circle cx="455.7" cy="82.7" r="2.5" fill="#2563eb" /><circle cx="464.9" cy="86.5" r="2.5" fill="#2563eb" /><circle cx="474.1" cy="83.9" r="2.5" fill="#2563eb" /><circle cx="483.3" cy="79.6" r="2.5" fill="#2563eb" /><circle cx="492.4" cy="114.8" r="2.5" fill="#2563eb" /><circle cx="501.6" cy="62.7" r="2.5" fill="#2563eb" /><circle cx="510.8" cy="65.3" r="2.5" fill="#2563eb" /><circle cx="520.0" cy="103.4" r="2.5" fill="#2563eb" /><path d="M70.0,317.3 L79.2,179.0 L88.4,187.5 L97.6,118.6 L106.7,194.8 L115.9,105.7 L125.1,96.1 L134.3,118.8 L143.5,178.0 L152.7,98.2 L161.8,179.8 L171.0,115.6 L180.2,116.0 L189.4,131.9 L198.6,158.0 L207.8,124.4 L216.9,141.1 L226.1,99.5 L235.3,109.3 L244.5,113.3 L253.7,113.9 L262.9,133.3 L272.0,89.7 L281.2,106.8 L290.4,95.2 L299.6,90.0 L308.8,92.4 L318.0,147.4" fill="none" stroke="#dc2626" stroke-width="1.5" stroke-linejoin="round" /><circle cx="70.0" cy="317.3" r="2.5" fill="#dc2626" /><circle cx="79.2" cy="179.0" r="2.5" fill="#dc2626" /><circle cx="88.4" cy="187.5" r="2.5" fill="#dc2626" /><circle cx="97.6" cy="118.6" r="2.5" fill="#dc2626" /><circle cx="106.7" cy="194.8" r="2.5" fill="#dc2626" /><circle cx="115.9" cy="105.7" r="2.5" fill="#dc2626" /><circle cx="125.1" cy="96.1" r="2.5" fill="#dc2626" /><circle cx="134.3" cy="118.8" r="2.5" fill="#dc2626" /><circle cx="143.5" cy="178.0" r="2.5" fill="#dc2626" /><circle cx="152.7" cy="98.2" r="2.5" fill="#dc2626" /><circle cx="161.8" cy="179.8" r="2.5" fill="#dc2626" /><circle cx="171.0" cy="115.6" r="2.5" fill="#dc2626" /><circle cx="180.2" cy="116.0" r="2.5" fill="#dc2626" /><circle cx="189.4" cy="131.9" r="2.5" fill="#dc2626" /><circle cx="198.6" cy="158.0" r="2.5" fill="#dc2626" /><circle cx="207.8" cy="124.4" r="2.5" fill="#dc2626" /><circle cx="216.9" cy="141.1" r="2.5" fill="#dc2626" /><circle cx="226.1" cy="99.5" r="2.5" fill="#dc2626" /><circle cx="235.3" cy="109.3" r="2.5" fill="#dc2626" /><circle cx="244.5" cy="113.3" r="2.5" fill="#dc2626" /><circle cx="253.7" cy="113.9" r="2.5" fill="#dc2626" /><circle cx="262.9" cy="133.3" r="2.5" fill="#dc2626" /><circle cx="272.0" cy="89.7" r="2.5" fill="#dc2626" /><circle cx="281.2" cy="106.8" r="2.5" fill="#dc2626" /><circle cx="290.4" cy="95.2" r="2.5" fill="#dc2626" /><circle cx="299.6" cy="90.0" r="2.5" fill="#dc2626" /><circle cx="308.8" cy="92.4" r="2.5" fill="#dc2626" /><circle cx="318.0" cy="147.4" r="2.5" fill="#dc2626" /><text x="532" y="58" font-size="12" font-weight="600">runs</text><line x1="532" y1="72" x2="550" y2="72" stroke="#2563eb" stroke-width="2" /><text x="556" y="76" font-size="11">v0.6.2 (n=50)</text><line x1="532" y1="88" x2="550" y2="88" stroke="#dc2626" stroke-width="2" /><text x="556" y="92" font-size="11">v0.6.2b (n=28)</text></svg>
