<svg xmlns="http://www.w3.org/2000/svg" viewBox="0 0 720 380" width="720" height="380" font-family="ui-sans-serif, system-ui, sans-serif" font-size="11"><rect width="720" height="380" fill="white" /><text x="360" y="22" text-anchor="middle" font-size="14" font-weight="600">v0.6.2 vs v0.6.2b — val macro_f1 (stable despite val_loss volatility)</text><text x="295" y="368" text-anchor="middle" font-size="12">training step</text><text transform="translate(20, 190) rotate(-90)" text-anchor="middle" font-size="12">(log scale) macro_f1</text><text x="152.65306122448982" y="348" text-anchor="middle">20,000</text><line x1="244.48979591836735" y1="330" x2="244.48979591836735" y2="334" stroke="#374151" stroke-width="1" /><text x="244.48979591836735" y="348" text-anchor="middle">40,000</text><line x1="336.3265306122449" y1="330" x2="336.3265306122449" y2="334" stroke="#374151" stroke-width="1" /><text x="336.3265306122449" y="348" text-anchor="middle">60,000</text><line x1="428.16326530612247" y1="330" x2="428.16326530612247" y2="334" stroke="#374151" stroke-width="1" /><text x="428.16326530612247" y="348" text-anchor="middle">80,000</text><line x1="520" y1="330" x2="520" y2="334" stroke="#374151" stroke-width="1" /><text x="520" y="348" text-anchor="middle">100,000</text>
<rect x="70" y="50" width="450" height="280" fill="none" stroke="#9ca3af" stroke-width="1" /><path d="M70.0,276.0 L79.2,230.2 L88.4,125.5 L97.6,115.7 L106.7,182.6 L115.9,103.1 L125.1,98.7 L134.3,95.3 L143.5,92.1 L152.7,142.9 L161.8,94.8 L171.0,85.7 L180.2,85.5 L189.4,109.3 L198.6,114.3 L207.8,97.0 L216.9,99.0 L226.1,96.7 L235.3,74.6 L244.5,71.3 L253.7,72.1 L262.9,83.5 L272.0,74.3 L281.2,100.3 L290.4,89.3 L299.6,85.2 L308.8,86.8 L318.0,79.8 L327.1,77.2 L336.3,78.7 L345.5,76.4 L354.7,100.3 L363.9,78.5 L373.1,117.7 L382.2,97.3 L391.4,78.3 L400.6,79.3 L409.8,79.6 L419.0,141.6 L428.2,89.3 L437.3,82.6 L446.5,105.2 L455.7,80.6 L464.9,84.1 L474.1,81.7 L483.3,77.6 L492.4,111.1 L501.6,61.8 L510.8,64.2 L520.0,100.2" fill="none" stroke="#2563eb" stroke-width="1.5" stroke-linejoin="round" /><circle cx="70.0" cy="276.0" r="2.5" fill="#2563eb" /><circle cx="79.2" cy="230.2" r="2.5" fill="#2563eb" /><circle cx="88.4" cy="125.5" r="2.5" fill="#2563eb" /><circle cx="97.6" cy="115.7" r="2.5" fill="#2563eb" /><circle cx="106.7" cy="182.6" r="2.5" fill="#2563eb" /><circle cx="115.9" cy="103.1" r="2.5" fill="#2563eb" /><circle cx="125.1" cy="98.7" r="2.5" fill="#2563eb" /><circle cx="134.3" cy="95.3" r="2.5" fill="#2563eb" /><circle cx="143.5" cy="92.1" r="2.5" fill="#2563eb" /><circle cx="152.7" cy="142.9" r="2.5" fill="#2563eb" /><circle cx="161.8" cy="94.8" r="2.5" fill="#2563eb" /><circle cx="171.0" cy="85.7" r="2.5" fill="#2563eb" /><circle cx="180.2" cy="85.5" r="2.5" fill="#2563eb" /><circle cx="189.4" cy="109.3" r="2.5" fill="#2563eb" /><circle cx="198.6" cy="114.3" r="2.5" fill="#2563eb" /><circle cx="207.8" cy="97.0" r="2.5" fill="#2563eb" /><circle cx="216.9" cy="99.0" r="2.5" fill="#2563eb" /><circle cx="226.1" cy="96.7" r="2.5" fill="#2563eb" /><circle cx="235.3" cy="74.6" r="2.5" fill="#2563eb" /><circle cx="244.5" cy="71.3" r="2.5" fill="#2563eb" /><circle cx="253.7" cy="72.1" r="2.5" fill="#2563eb" /><circle cx="262.9" cy="83.5" r="2.5" fill="#2563eb" /><circle cx="272.0" cy="74.3" r="2.5" fill="#2563eb" /><circle cx="281.2" cy="100.3" r="2.5" fill="#2563eb" /><circle cx="290.4" cy="89.3" r="2.5" fill="#2563eb" /><circle cx="299.6" cy="85.2" r="2.5" fill="#2563eb" /><circle cx="308.8" cy="86.8" r="2.5" fill="#2563eb" /><circle cx="318.0" cy="79.8" r="2.5" fill="#2563eb" /><circle cx="327.1" cy="77.2" r="2.5" fill="#2563eb" /><circle cx="336.3" cy="78.7" r="2.5" fill="#2563eb" /><circle cx="345.5" cy="76.4" r="2.5" fill="#2563eb" /><circle cx="354.7" cy="100.3" r="2.5" fill="#2563eb" /><circle cx="363.9" cy="78.5" r="2.5" fill="#2563eb" /><circle cx="373.1" cy="117.7" r="2.5" fill="#2563eb" /><circle cx="382.2" cy="97.3" r="2.5" fill="#2563eb" /><circle cx="391.4" cy="78.3" r="2.5" fill="#2563eb" /><circle cx="400.6" cy="79.3" r="2.5" fill="#2563eb" /><circle cx="409.8" cy="79.6" r="2.5" fill="#2563eb" /><circle cx="419.0" cy="141.6" r="2.5" fill="#2563eb" /><circle cx="428.2" cy="89.3" r="2.5" fill="#2563eb" /><circle cx="437.3" cy="82.6" r="2.5" fill="#2563eb" /><circle cx="446.5" cy="105.2" r="2.5" fill="#2563eb" /><circle cx="455.7" cy="80.6" r="2.5" fill="#2563eb" /><circle cx="464.9" cy="84.1" r="2.5" fill="#2563eb" /><circle cx="474.1" cy="81.7" r="2.5" fill="#2563eb" /><circle cx="483.3" cy="77.6" r="2.5" fill="#2563eb" /><circle cx="492.4" cy="111.1" r="2.5" fill="#2563eb" /><circle cx="501.6" cy="61.8" r="2.5" fill="#2563eb" /><circle cx="510.8" cy="64.2" r="2.5" fill="#2563eb" /><circle cx="520.0" cy="100.2" r="2.5" fill="#2563eb" /><path d="M70.0,316.3 L79.2,173.7 L88.4,182.1 L97.6,114.7 L106.7,189.4 L115.9,102.4 L125.1,93.2 L134.3,114.9 L143.5,172.7 L152.7,95.2 L161.8,174.5 L171.0,111.8 L180.2,112.2 L189.4,127.5 L198.6,153.0 L207.8,120.3 L216.9,136.5 L226.1,96.5 L235.3,105.8 L244.5,109.6 L253.7,110.2 L262.9,128.9 L272.0,87.2 L281.2,103.4 L290.4,92.4 L299.6,87.5 L308.8,89.7 L318.0,142.6" fill="none" stroke="#dc2626" stroke-width="1.5" stroke-linejoin="round" /><circle cx="70.0" cy="316.3" r="2.5" fill="#dc2626" /><circle cx="79.2" cy="173.7" r="2.5" fill="#dc2626" /><circle cx="88.4" cy="182.1" r="2.5" fill="#dc2626" /><circle cx="97.6" cy="114.7" r="2.5" fill="#dc2626" /><circle cx="106.7" cy="189.4" r="2.5" fill="#dc2626" /><circle cx="115.9" cy="102.4" r="2.5" fill="#dc2626" /><circle cx="125.1" cy="93.2" r="2.5" fill="#dc2626" /><circle cx="134.3" cy="114.9" r="2.5" fill="#dc2626" /><circle cx="143.5" cy="172.7" r="2.5" fill="#dc2626" /><circle cx="152.7" cy="95.2" r="2.5" fill="#dc2626" /><circle cx="161.8" cy="174.5" r="2.5" fill="#dc2626" /><circle cx="171.0" cy="111.8" r="2.5" fill="#dc2626" /><circle cx="180.2" cy="112.2" r="2.5" fill="#dc2626" /><circle cx="189.4" cy="127.5" r="2.5" fill="#dc2626" /><circle cx="198.6" cy="153.0" r="2.5" fill="#dc2626" /><circle cx="207.8" cy="120.3" r="2.5" fill="#dc2626" /><circle cx="216.9" cy="136.5" r="2.5" fill="#dc2626" /><circle cx="226.1" cy="96.5" r="2.5" fill="#dc2626" /><circle cx="235.3" cy="105.8" r="2.5" fill="#dc2626" /><circle cx="244.5" cy="109.6" r="2.5" fill="#dc2626" /><circle cx="253.7" cy="110.2" r="2.5" fill="#dc2626" /><circle cx="262.9" cy="128.9" r="2.5" fill="#dc2626" /><circle cx="272.0" cy="87.2" r="2.5" fill="#dc2626" /><circle cx="281.2" cy="103.4" r="2.5" fill="#dc2626" /><circle cx="290.4" cy="92.4" r="2.5" fill="#dc2626" /><circle cx="299.6" cy="87.5" r="2.5" fill="#dc2626" /><circle cx="308.8" cy="89.7" r="2.5" fill="#dc2626" /><circle cx="318.0" cy="142.6" r="2.5" fill="#dc2626" /><text x="532" y="58" font-size="12" font-weight="600">runs</text><line x1="532" y1="72" x2="550" y2="72" stroke="#2563eb" stroke-width="2" /><text x="556" y="76" font-size="11">v0.6.2 (n=50)</text><line x1="532" y1="88" x2="550" y2="88" stroke="#dc2626" stroke-width="2" /><text x="556" y="92" font-size="11">v0.6.2b (n=28)</text></svg>
