<!-- Generated asset. Do not hand-edit. Regenerate via docs/scripts/make-readme-terminal-cast.mts (recipe in its docstring). -->
<svg xmlns="http://www.w3.org/2000/svg" xmlns:xlink="http://www.w3.org/1999/xlink" width="864" height="336.52"><rect width="864" height="336.52" rx="5" ry="5" class="a"/><svg y="0%" x="0%"><circle cx="20" cy="20" r="6" fill="#ff5f58"/><circle cx="40" cy="20" r="6" fill="#ffbd2e"/><circle cx="60" cy="20" r="6" fill="#18c132"/></svg><svg height="260.52" viewBox="0 0 80 26.052" width="800" x="27" xmlns="http://www.w3.org/2000/svg" xmlns:xlink="http://www.w3.org/1999/xlink" y="58"><style>@keyframes l{0%{transform:translateX(0)}8.4%{transform:translateX(-80px)}8.8%{transform:translateX(-160px)}9.2%{transform:translateX(-240px)}9.5%{transform:translateX(-320px)}10%{transform:translateX(-400px)}10.5%{transform:translateX(-480px)}11%{transform:translateX(-560px)}11.3%{transform:translateX(-640px)}11.7%{transform:translateX(-720px)}12.1%{transform:translateX(-800px)}12.7%{transform:translateX(-880px)}13.2%{transform:translateX(-960px)}13.7%{transform:translateX(-1040px)}14.2%{transform:translateX(-1120px)}14.7%{transform:translateX(-1200px)}15.2%{transform:translateX(-1280px)}15.5%{transform:translateX(-1360px)}16%{transform:translateX(-1440px)}16.6%{transform:translateX(-1520px)}17.1%{transform:translateX(-1600px)}17.7%{transform:translateX(-1680px)}18.2%{transform:translateX(-1760px)}18.7%{transform:translateX(-1840px)}19.2%{transform:translateX(-1920px)}19.7%{transform:translateX(-2000px)}20%{transform:translateX(-2080px)}20.4%{transform:translateX(-2160px)}21%{transform:translateX(-2240px)}21.5%{transform:translateX(-2320px)}21.8%{transform:translateX(-2400px)}22.2%{transform:translateX(-2480px)}22.8%{transform:translateX(-2560px)}23.2%{transform:translateX(-2640px)}23.7%{transform:translateX(-2720px)}24.2%{transform:translateX(-2800px)}24.7%{transform:translateX(-2880px)}25.3%{transform:translateX(-2960px)}25.9%{transform:translateX(-3040px)}26.3%{transform:translateX(-3120px)}26.7%{transform:translateX(-3200px)}27.2%{transform:translateX(-3280px)}27.6%{transform:translateX(-3360px)}27.9%{transform:translateX(-3440px)}28.4%{transform:translateX(-3520px)}28.7%{transform:translateX(-3600px)}29.2%{transform:translateX(-3680px)}29.7%{transform:translateX(-3760px)}29.9%{transform:translateX(-3840px)}30.5%{transform:translateX(-3920px)}30.9%{transform:translateX(-4000px)}31.3%{transform:translateX(-4080px)}31.8%{transform:translateX(-4160px)}32.3%{transform:translateX(-4240px)}32.9%{transform:translateX(-4320px)}33.2%{transform:translateX(-4400px)}33.7%{transform:translateX(-4480px)}34.2%{transform:translateX(-4560px)}34.6%{transform:translateX(-4640px)}34.8%{transform:translateX(-4720px)}35.2%{transform:translateX(-4800px)}35.7%{transform:translateX(-4880px)}36.2%{transform:translateX(-4960px)}36.6%{transform:translateX(-5040px)}37.1%{transform:translateX(-5120px)}37.5%{transform:translateX(-5200px)}37.9%{transform:translateX(-5280px)}38.4%{transform:translateX(-5360px)}39%{transform:translateX(-5440px)}39.3%{transform:translateX(-5520px)}39.9%{transform:translateX(-5600px)}40.2%{transform:translateX(-5680px)}40.8%{transform:translateX(-5760px)}41.1%{transform:translateX(-5840px)}46%{transform:translateX(-5920px)}49.5%{transform:translateX(-6000px)}50.1%{transform:translateX(-6080px)}50.8%{transform:translateX(-6160px)}51.4%{transform:translateX(-6240px)}52%{transform:translateX(-6320px)}52.7%{transform:translateX(-6400px)}53.3%{transform:translateX(-6480px)}53.9%{transform:translateX(-6560px)}58.1%{transform:translateX(-6640px)}to{transform:translateX(-6720px)}}.a{fill:#282d35}.f,.g,.h,.i{fill:#8a8a8a;white-space:pre}.g,.h,.i{fill:#b9c0cb}.h,.i{fill:#ff00af}.i{fill:#87d787}</style><g font-family="Monaco,Consolas,Menlo,'Bitstream Vera Sans Mono','Powerline Symbols',monospace" font-size="1.67"><defs><symbol id="1"><text y="1.67" class="f">$</text></symbol><symbol id="2"><text y="1.67" class="f">$</text><text x="2.004" y="1.67" class="g">npx</text></symbol><symbol id="3"><text y="1.67" class="f">$</text><text x="2.004" y="1.67" class="g">npx</text><text x="6.012" y="1.67" class="g">mailwoman</text></symbol><symbol id="4"><text y="1.67" class="f">$</text><text x="2.004" y="1.67" class="g">npx</text><text x="6.012" y="1.67" class="g">mailwoman</text><text x="16.032" y="1.67" class="g">parse</text></symbol><symbol id="5"><text y="1.67" class="f">$</text><text x="2.004" y="1.67" class="g">npx</text><text x="6.012" y="1.67" class="g">mailwoman</text><text x="16.032" y="1.67" class="g">parse</text><text x="22.044" y="1.67" class="g">&quot;1600</text></symbol><symbol id="6"><text y="1.67" class="f">$</text><text x="2.004" y="1.67" class="g">npx</text><text x="6.012" y="1.67" class="g">mailwoman</text><text x="16.032" y="1.67" class="g">parse</text><text x="22.044" y="1.67" class="g">&quot;1600</text><text x="28.056" y="1.67" class="g">Amphitheatre</text></symbol><symbol id="7"><text y="1.67" class="f">$</text><text x="2.004" y="1.67" class="g">npx</text><text x="6.012" y="1.67" class="g">mailwoman</text><text x="16.032" y="1.67" class="g">parse</text><text x="22.044" y="1.67" class="g">&quot;1600</text><text x="28.056" y="1.67" class="g">Amphitheatre</text><text x="41.082" y="1.67" class="g">Parkway,</text></symbol><symbol id="8"><text y="1.67" class="f">$</text><text x="2.004" y="1.67" class="g">npx</text><text x="6.012" y="1.67" class="g">mailwoman</text><text x="16.032" y="1.67" class="g">parse</text><text x="22.044" y="1.67" class="g">&quot;1600</text><text x="28.056" y="1.67" class="g">Amphitheatre</text><text x="41.082" y="1.67" class="g">Parkway,</text><text x="50.1" y="1.67" class="g">Mountain</text></symbol><symbol id="9"><text y="1.67" class="f">$</text><text x="2.004" y="1.67" class="g">npx</text><text x="6.012" y="1.67" class="g">mailwoman</text><text x="16.032" y="1.67" class="g">parse</text><text x="22.044" y="1.67" class="g">&quot;1600</text><text x="28.056" y="1.67" class="g">Amphitheatre</text><text x="41.082" y="1.67" class="g">Parkway,</text><text x="50.1" y="1.67" class="g">Mountain</text><text x="59.118" y="1.67" class="g">View,</text></symbol><symbol id="10"><text y="1.67" class="f">$</text><text x="2.004" y="1.67" class="g">npx</text><text x="6.012" y="1.67" class="g">mailwoman</text><text x="16.032" y="1.67" class="g">parse</text><text x="22.044" y="1.67" class="g">&quot;1600</text><text x="28.056" y="1.67" class="g">Amphitheatre</text><text x="41.082" y="1.67" class="g">Parkway,</text><text x="50.1" y="1.67" class="g">Mountain</text><text x="59.118" y="1.67" class="g">View,</text><text x="65.13" y="1.67" class="g">CA</text></symbol><symbol id="11"><text y="1.67" class="f">$</text><text x="2.004" y="1.67" class="g">npx</text><text x="6.012" y="1.67" class="g">mailwoman</text><text x="16.032" y="1.67" class="g">parse</text><text x="22.044" y="1.67" class="g">&quot;1600</text><text x="28.056" y="1.67" class="g">Amphitheatre</text><text x="41.082" y="1.67" class="g">Parkway,</text><text x="50.1" y="1.67" class="g">Mountain</text><text x="59.118" y="1.67" class="g">View,</text><text x="65.13" y="1.67" class="g">CA</text><text x="68.136" y="1.67" class="g">94043&quot;</text></symbol><symbol id="12"><text y="1.67" class="f">{</text></symbol><symbol id="13"><text x="2.004" y="1.67" class="h">&quot;region&quot;</text><text x="10.02" y="1.67" class="f">:</text><text x="12.024" y="1.67" class="i">&quot;CA&quot;</text><text x="16.032" y="1.67" class="f">,</text></symbol><symbol id="14"><text x="2.004" y="1.67" class="h">&quot;locality&quot;</text><text x="12.024" y="1.67" class="f">:</text><text x="14.028" y="1.67" class="i">&quot;Mountain</text><text x="24.048" y="1.67" class="i">View&quot;</text><text x="29.058" y="1.67" class="f">,</text></symbol><symbol id="15"><text x="2.004" y="1.67" class="h">&quot;street&quot;</text><text x="10.02" y="1.67" class="f">:</text><text x="12.024" y="1.67" class="i">&quot;Amphitheatre&quot;</text><text x="26.052" y="1.67" class="f">,</text></symbol><symbol id="16"><text x="2.004" y="1.67" class="h">&quot;house_number&quot;</text><text x="16.032" y="1.67" class="f">:</text><text x="18.036" y="1.67" class="i">&quot;1600&quot;</text><text x="24.048" y="1.67" class="f">,</text></symbol><symbol id="17"><text x="2.004" y="1.67" class="h">&quot;street_suffix&quot;</text><text x="17.034" y="1.67" class="f">:</text><text x="19.038" y="1.67" class="i">&quot;Parkway&quot;</text><text x="28.056" y="1.67" class="f">,</text></symbol><symbol id="18"><text x="2.004" y="1.67" class="h">&quot;postcode&quot;</text><text x="12.024" y="1.67" class="f">:</text><text x="14.028" y="1.67" class="i">&quot;94043&quot;</text></symbol><symbol id="19"><text y="1.67" class="f">}</text></symbol><symbol id="a"><path fill="transparent" d="M0 0h80v13H0z"/></symbol><symbol id="b"><path fill="#6f7683" d="M0 0h1.102v2.171H0z"/></symbol></defs><path class="a" d="M0 0h80v26.052H0z"/><g style="animation-duration:7.16s;animation-iteration-count:infinite;animation-name:l;animation-timing-function:steps(1,end)"><svg width="6800"><svg><use xlink:href="#a"/><use xlink:href="#b" x="-.004"/></svg><svg x="80"><use xlink:href="#a"/><use xlink:href="#b" x="1.996"/><use xlink:href="#1"/></svg><svg x="160"><use xlink:href="#a"/><use xlink:href="#b" x="2.996"/><text y="1.67" class="f">$</text><text x="2.004" y="1.67" class="g">n</text></svg><svg x="240"><use xlink:href="#a"/><use xlink:href="#b" x="3.996"/><text y="1.67" class="f">$</text><text x="2.004" y="1.67" class="g">np</text></svg><svg x="320"><use xlink:href="#a"/><use xlink:href="#b" x="4.996"/><use xlink:href="#2"/></svg><svg x="400"><use xlink:href="#a"/><use xlink:href="#b" x="5.996"/><use xlink:href="#2"/></svg><svg x="480"><use xlink:href="#a"/><use xlink:href="#b" x="6.996"/><text y="1.67" class="f">$</text><text x="2.004" y="1.67" class="g">npx</text><text x="6.012" y="1.67" class="g">m</text></svg><svg x="560"><use xlink:href="#a"/><use xlink:href="#b" x="7.996"/><text y="1.67" class="f">$</text><text x="2.004" y="1.67" class="g">npx</text><text x="6.012" y="1.67" class="g">ma</text></svg><svg x="640"><use xlink:href="#a"/><use xlink:href="#b" x="8.996"/><text y="1.67" class="f">$</text><text x="2.004" y="1.67" class="g">npx</text><text x="6.012" y="1.67" class="g">mai</text></svg><svg x="720"><use xlink:href="#a"/><use xlink:href="#b" x="9.996"/><text y="1.67" class="f">$</text><text x="2.004" y="1.67" class="g">npx</text><text x="6.012" y="1.67" class="g">mail</text></svg><svg x="800"><use xlink:href="#a"/><use xlink:href="#b" x="10.996"/><text y="1.67" class="f">$</text><text x="2.004" y="1.67" class="g">npx</text><text x="6.012" y="1.67" class="g">mailw</text></svg><svg x="880"><use xlink:href="#a"/><use xlink:href="#b" x="11.996"/><text y="1.67" class="f">$</text><text x="2.004" y="1.67" class="g">npx</text><text x="6.012" y="1.67" class="g">mailwo</text></svg><svg x="960"><use xlink:href="#a"/><use xlink:href="#b" x="12.996"/><text y="1.67" class="f">$</text><text x="2.004" y="1.67" class="g">npx</text><text x="6.012" y="1.67" class="g">mailwom</text></svg><svg x="1040"><use xlink:href="#a"/><use xlink:href="#b" x="13.996"/><text y="1.67" class="f">$</text><text x="2.004" y="1.67" class="g">npx</text><text x="6.012" y="1.67" class="g">mailwoma</text></svg><svg x="1120"><use xlink:href="#a"/><use xlink:href="#b" x="14.996"/><use xlink:href="#3"/></svg><svg x="1200"><use xlink:href="#a"/><use xlink:href="#b" x="15.996"/><use xlink:href="#3"/></svg><svg x="1280"><use xlink:href="#a"/><use xlink:href="#b" x="16.996"/><text y="1.67" class="f">$</text><text x="2.004" y="1.67" class="g">npx</text><text x="6.012" y="1.67" class="g">mailwoman</text><text x="16.032" y="1.67" class="g">p</text></svg><svg x="1360"><use xlink:href="#a"/><use xlink:href="#b" x="17.996"/><text y="1.67" class="f">$</text><text x="2.004" y="1.67" class="g">npx</text><text x="6.012" y="1.67" class="g">mailwoman</text><text x="16.032" y="1.67" class="g">pa</text></svg><svg x="1440"><use xlink:href="#a"/><use xlink:href="#b" x="18.996"/><text y="1.67" class="f">$</text><text x="2.004" y="1.67" class="g">npx</text><text x="6.012" y="1.67" class="g">mailwoman</text><text x="16.032" y="1.67" class="g">par</text></svg><svg x="1520"><use xlink:href="#a"/><use xlink:href="#b" x="19.996"/><text y="1.67" class="f">$</text><text x="2.004" y="1.67" class="g">npx</text><text x="6.012" y="1.67" class="g">mailwoman</text><text x="16.032" y="1.67" class="g">pars</text></svg><svg x="1600"><use xlink:href="#a"/><use xlink:href="#b" x="20.996"/><use xlink:href="#4"/></svg><svg x="1680"><use xlink:href="#a"/><use xlink:href="#b" x="21.996"/><use xlink:href="#4"/></svg><svg x="1760"><use xlink:href="#a"/><use xlink:href="#b" x="22.996"/><text y="1.67" class="f">$</text><text x="2.004" y="1.67" class="g">npx</text><text x="6.012" y="1.67" class="g">mailwoman</text><text x="16.032" y="1.67" class="g">parse</text><text x="22.044" y="1.67" class="g">&quot;</text></svg><svg x="1840"><use xlink:href="#a"/><use xlink:href="#b" x="23.996"/><text y="1.67" class="f">$</text><text x="2.004" y="1.67" class="g">npx</text><text x="6.012" y="1.67" class="g">mailwoman</text><text x="16.032" y="1.67" class="g">parse</text><text x="22.044" y="1.67" class="g">&quot;1</text></svg><svg x="1920"><use xlink:href="#a"/><use xlink:href="#b" x="24.996"/><text y="1.67" class="f">$</text><text x="2.004" y="1.67" class="g">npx</text><text x="6.012" y="1.67" class="g">mailwoman</text><text x="16.032" y="1.67" class="g">parse</text><text x="22.044" y="1.67" class="g">&quot;16</text></svg><svg x="2000"><use xlink:href="#a"/><use xlink:href="#b" x="25.996"/><text y="1.67" class="f">$</text><text x="2.004" y="1.67" class="g">npx</text><text x="6.012" y="1.67" class="g">mailwoman</text><text x="16.032" y="1.67" class="g">parse</text><text x="22.044" y="1.67" class="g">&quot;160</text></svg><svg x="2080"><use xlink:href="#a"/><use xlink:href="#b" x="26.996"/><use xlink:href="#5"/></svg><svg x="2160"><use xlink:href="#a"/><use xlink:href="#b" x="27.996"/><use xlink:href="#5"/></svg><svg x="2240"><use xlink:href="#a"/><use xlink:href="#b" x="28.996"/><text y="1.67" class="f">$</text><text x="2.004" y="1.67" class="g">npx</text><text x="6.012" y="1.67" class="g">mailwoman</text><text x="16.032" y="1.67" class="g">parse</text><text x="22.044" y="1.67" class="g">&quot;1600</text><text x="28.056" y="1.67" class="g">A</text></svg><svg x="2320"><use xlink:href="#a"/><use xlink:href="#b" x="29.996"/><text y="1.67" class="f">$</text><text x="2.004" y="1.67" class="g">npx</text><text x="6.012" y="1.67" class="g">mailwoman</text><text x="16.032" y="1.67" class="g">parse</text><text x="22.044" y="1.67" class="g">&quot;1600</text><text x="28.056" y="1.67" class="g">Am</text></svg><svg x="2400"><use xlink:href="#a"/><use xlink:href="#b" x="30.996"/><text y="1.67" class="f">$</text><text x="2.004" y="1.67" class="g">npx</text><text x="6.012" y="1.67" class="g">mailwoman</text><text x="16.032" y="1.67" class="g">parse</text><text x="22.044" y="1.67" class="g">&quot;1600</text><text x="28.056" y="1.67" class="g">Amp</text></svg><svg x="2480"><use xlink:href="#a"/><use xlink:href="#b" x="31.996"/><text y="1.67" class="f">$</text><text x="2.004" y="1.67" class="g">npx</text><text x="6.012" y="1.67" class="g">mailwoman</text><text x="16.032" y="1.67" class="g">parse</text><text x="22.044" y="1.67" class="g">&quot;1600</text><text x="28.056" y="1.67" class="g">Amph</text></svg><svg x="2560"><use xlink:href="#a"/><use xlink:href="#b" x="32.996"/><text y="1.67" class="f">$</text><text x="2.004" y="1.67" class="g">npx</text><text x="6.012" y="1.67" class="g">mailwoman</text><text x="16.032" y="1.67" class="g">parse</text><text x="22.044" y="1.67" class="g">&quot;1600</text><text x="28.056" y="1.67" class="g">Amphi</text></svg><svg x="2640"><use xlink:href="#a"/><use xlink:href="#b" x="33.996"/><text y="1.67" class="f">$</text><text x="2.004" y="1.67" class="g">npx</text><text x="6.012" y="1.67" class="g">mailwoman</text><text x="16.032" y="1.67" class="g">parse</text><text x="22.044" y="1.67" class="g">&quot;1600</text><text x="28.056" y="1.67" class="g">Amphit</text></svg><svg x="2720"><use xlink:href="#a"/><use xlink:href="#b" x="34.996"/><text y="1.67" class="f">$</text><text x="2.004" y="1.67" class="g">npx</text><text x="6.012" y="1.67" class="g">mailwoman</text><text x="16.032" y="1.67" class="g">parse</text><text x="22.044" y="1.67" class="g">&quot;1600</text><text x="28.056" y="1.67" class="g">Amphith</text></svg><svg x="2800"><use xlink:href="#a"/><use xlink:href="#b" x="35.996"/><text y="1.67" class="f">$</text><text x="2.004" y="1.67" class="g">npx</text><text x="6.012" y="1.67" class="g">mailwoman</text><text x="16.032" y="1.67" class="g">parse</text><text x="22.044" y="1.67" class="g">&quot;1600</text><text x="28.056" y="1.67" class="g">Amphithe</text></svg><svg x="2880"><use xlink:href="#a"/><use xlink:href="#b" x="36.996"/><text y="1.67" class="f">$</text><text x="2.004" y="1.67" class="g">npx</text><text x="6.012" y="1.67" class="g">mailwoman</text><text x="16.032" y="1.67" class="g">parse</text><text x="22.044" y="1.67" class="g">&quot;1600</text><text x="28.056" y="1.67" class="g">Amphithea</text></svg><svg x="2960"><use xlink:href="#a"/><use xlink:href="#b" x="37.996"/><text y="1.67" class="f">$</text><text x="2.004" y="1.67" class="g">npx</text><text x="6.012" y="1.67" class="g">mailwoman</text><text x="16.032" y="1.67" class="g">parse</text><text x="22.044" y="1.67" class="g">&quot;1600</text><text x="28.056" y="1.67" class="g">Amphitheat</text></svg><svg x="3040"><use xlink:href="#a"/><use xlink:href="#b" x="38.996"/><text y="1.67" class="f">$</text><text x="2.004" y="1.67" class="g">npx</text><text x="6.012" y="1.67" class="g">mailwoman</text><text x="16.032" y="1.67" class="g">parse</text><text x="22.044" y="1.67" class="g">&quot;1600</text><text x="28.056" y="1.67" class="g">Amphitheatr</text></svg><svg x="3120"><use xlink:href="#a"/><use xlink:href="#b" x="39.996"/><use xlink:href="#6"/></svg><svg x="3200"><use xlink:href="#a"/><use xlink:href="#b" x="40.996"/><use xlink:href="#6"/></svg><svg x="3280"><use xlink:href="#a"/><use xlink:href="#b" x="41.996"/><text y="1.67" class="f">$</text><text x="2.004" y="1.67" class="g">npx</text><text x="6.012" y="1.67" class="g">mailwoman</text><text x="16.032" y="1.67" class="g">parse</text><text x="22.044" y="1.67" class="g">&quot;1600</text><text x="28.056" y="1.67" class="g">Amphitheatre</text><text x="41.082" y="1.67" class="g">P</text></svg><svg x="3360"><use xlink:href="#a"/><use xlink:href="#b" x="42.996"/><text y="1.67" class="f">$</text><text x="2.004" y="1.67" class="g">npx</text><text x="6.012" y="1.67" class="g">mailwoman</text><text x="16.032" y="1.67" class="g">parse</text><text x="22.044" y="1.67" class="g">&quot;1600</text><text x="28.056" y="1.67" class="g">Amphitheatre</text><text x="41.082" y="1.67" class="g">Pa</text></svg><svg x="3440"><use xlink:href="#a"/><use xlink:href="#b" x="43.996"/><text y="1.67" class="f">$</text><text x="2.004" y="1.67" class="g">npx</text><text x="6.012" y="1.67" class="g">mailwoman</text><text x="16.032" y="1.67" class="g">parse</text><text x="22.044" y="1.67" class="g">&quot;1600</text><text x="28.056" y="1.67" class="g">Amphitheatre</text><text x="41.082" y="1.67" class="g">Par</text></svg><svg x="3520"><use xlink:href="#a"/><use xlink:href="#b" x="44.996"/><text y="1.67" class="f">$</text><text x="2.004" y="1.67" class="g">npx</text><text x="6.012" y="1.67" class="g">mailwoman</text><text x="16.032" y="1.67" class="g">parse</text><text x="22.044" y="1.67" class="g">&quot;1600</text><text x="28.056" y="1.67" class="g">Amphitheatre</text><text x="41.082" y="1.67" class="g">Park</text></svg><svg x="3600"><use xlink:href="#a"/><use xlink:href="#b" x="45.996"/><text y="1.67" class="f">$</text><text x="2.004" y="1.67" class="g">npx</text><text x="6.012" y="1.67" class="g">mailwoman</text><text x="16.032" y="1.67" class="g">parse</text><text x="22.044" y="1.67" class="g">&quot;1600</text><text x="28.056" y="1.67" class="g">Amphitheatre</text><text x="41.082" y="1.67" class="g">Parkw</text></svg><svg x="3680"><use xlink:href="#a"/><use xlink:href="#b" x="46.996"/><text y="1.67" class="f">$</text><text x="2.004" y="1.67" class="g">npx</text><text x="6.012" y="1.67" class="g">mailwoman</text><text x="16.032" y="1.67" class="g">parse</text><text x="22.044" y="1.67" class="g">&quot;1600</text><text x="28.056" y="1.67" class="g">Amphitheatre</text><text x="41.082" y="1.67" class="g">Parkwa</text></svg><svg x="3760"><use xlink:href="#a"/><use xlink:href="#b" x="47.996"/><text y="1.67" class="f">$</text><text x="2.004" y="1.67" class="g">npx</text><text x="6.012" y="1.67" class="g">mailwoman</text><text x="16.032" y="1.67" class="g">parse</text><text x="22.044" y="1.67" class="g">&quot;1600</text><text x="28.056" y="1.67" class="g">Amphitheatre</text><text x="41.082" y="1.67" class="g">Parkway</text></svg><svg x="3840"><use xlink:href="#a"/><use xlink:href="#b" x="48.996"/><use xlink:href="#7"/></svg><svg x="3920"><use xlink:href="#a"/><use xlink:href="#b" x="49.996"/><use xlink:href="#7"/></svg><svg x="4000"><use xlink:href="#a"/><use xlink:href="#b" x="50.996"/><text y="1.67" class="f">$</text><text x="2.004" y="1.67" class="g">npx</text><text x="6.012" y="1.67" class="g">mailwoman</text><text x="16.032" y="1.67" class="g">parse</text><text x="22.044" y="1.67" class="g">&quot;1600</text><text x="28.056" y="1.67" class="g">Amphitheatre</text><text x="41.082" y="1.67" class="g">Parkway,</text><text x="50.1" y="1.67" class="g">M</text></svg><svg x="4080"><use xlink:href="#a"/><use xlink:href="#b" x="51.996"/><text y="1.67" class="f">$</text><text x="2.004" y="1.67" class="g">npx</text><text x="6.012" y="1.67" class="g">mailwoman</text><text x="16.032" y="1.67" class="g">parse</text><text x="22.044" y="1.67" class="g">&quot;1600</text><text x="28.056" y="1.67" class="g">Amphitheatre</text><text x="41.082" y="1.67" class="g">Parkway,</text><text x="50.1" y="1.67" class="g">Mo</text></svg><svg x="4160"><use xlink:href="#a"/><use xlink:href="#b" x="52.996"/><text y="1.67" class="f">$</text><text x="2.004" y="1.67" class="g">npx</text><text x="6.012" y="1.67" class="g">mailwoman</text><text x="16.032" y="1.67" class="g">parse</text><text x="22.044" y="1.67" class="g">&quot;1600</text><text x="28.056" y="1.67" class="g">Amphitheatre</text><text x="41.082" y="1.67" class="g">Parkway,</text><text x="50.1" y="1.67" class="g">Mou</text></svg><svg x="4240"><use xlink:href="#a"/><use xlink:href="#b" x="53.996"/><text y="1.67" class="f">$</text><text x="2.004" y="1.67" class="g">npx</text><text x="6.012" y="1.67" class="g">mailwoman</text><text x="16.032" y="1.67" class="g">parse</text><text x="22.044" y="1.67" class="g">&quot;1600</text><text x="28.056" y="1.67" class="g">Amphitheatre</text><text x="41.082" y="1.67" class="g">Parkway,</text><text x="50.1" y="1.67" class="g">Moun</text></svg><svg x="4320"><use xlink:href="#a"/><use xlink:href="#b" x="54.996"/><text y="1.67" class="f">$</text><text x="2.004" y="1.67" class="g">npx</text><text x="6.012" y="1.67" class="g">mailwoman</text><text x="16.032" y="1.67" class="g">parse</text><text x="22.044" y="1.67" class="g">&quot;1600</text><text x="28.056" y="1.67" class="g">Amphitheatre</text><text x="41.082" y="1.67" class="g">Parkway,</text><text x="50.1" y="1.67" class="g">Mount</text></svg><svg x="4400"><use xlink:href="#a"/><use xlink:href="#b" x="55.996"/><text y="1.67" class="f">$</text><text x="2.004" y="1.67" class="g">npx</text><text x="6.012" y="1.67" class="g">mailwoman</text><text x="16.032" y="1.67" class="g">parse</text><text x="22.044" y="1.67" class="g">&quot;1600</text><text x="28.056" y="1.67" class="g">Amphitheatre</text><text x="41.082" y="1.67" class="g">Parkway,</text><text x="50.1" y="1.67" class="g">Mounta</text></svg><svg x="4480"><use xlink:href="#a"/><use xlink:href="#b" x="56.996"/><text y="1.67" class="f">$</text><text x="2.004" y="1.67" class="g">npx</text><text x="6.012" y="1.67" class="g">mailwoman</text><text x="16.032" y="1.67" class="g">parse</text><text x="22.044" y="1.67" class="g">&quot;1600</text><text x="28.056" y="1.67" class="g">Amphitheatre</text><text x="41.082" y="1.67" class="g">Parkway,</text><text x="50.1" y="1.67" class="g">Mountai</text></svg><svg x="4560"><use xlink:href="#a"/><use xlink:href="#b" x="57.996"/><use xlink:href="#8"/></svg><svg x="4640"><use xlink:href="#a"/><use xlink:href="#b" x="58.996"/><use xlink:href="#8"/></svg><svg x="4720"><use xlink:href="#a"/><use xlink:href="#b" x="59.996"/><text y="1.67" class="f">$</text><text x="2.004" y="1.67" class="g">npx</text><text x="6.012" y="1.67" class="g">mailwoman</text><text x="16.032" y="1.67" class="g">parse</text><text x="22.044" y="1.67" class="g">&quot;1600</text><text x="28.056" y="1.67" class="g">Amphitheatre</text><text x="41.082" y="1.67" class="g">Parkway,</text><text x="50.1" y="1.67" class="g">Mountain</text><text x="59.118" y="1.67" class="g">V</text></svg><svg x="4800"><use xlink:href="#a"/><use xlink:href="#b" x="60.996"/><text y="1.67" class="f">$</text><text x="2.004" y="1.67" class="g">npx</text><text x="6.012" y="1.67" class="g">mailwoman</text><text x="16.032" y="1.67" class="g">parse</text><text x="22.044" y="1.67" class="g">&quot;1600</text><text x="28.056" y="1.67" class="g">Amphitheatre</text><text x="41.082" y="1.67" class="g">Parkway,</text><text x="50.1" y="1.67" class="g">Mountain</text><text x="59.118" y="1.67" class="g">Vi</text></svg><svg x="4880"><use xlink:href="#a"/><use xlink:href="#b" x="61.996"/><text y="1.67" class="f">$</text><text x="2.004" y="1.67" class="g">npx</text><text x="6.012" y="1.67" class="g">mailwoman</text><text x="16.032" y="1.67" class="g">parse</text><text x="22.044" y="1.67" class="g">&quot;1600</text><text x="28.056" y="1.67" class="g">Amphitheatre</text><text x="41.082" y="1.67" class="g">Parkway,</text><text x="50.1" y="1.67" class="g">Mountain</text><text x="59.118" y="1.67" class="g">Vie</text></svg><svg x="4960"><use xlink:href="#a"/><use xlink:href="#b" x="62.996"/><text y="1.67" class="f">$</text><text x="2.004" y="1.67" class="g">npx</text><text x="6.012" y="1.67" class="g">mailwoman</text><text x="16.032" y="1.67" class="g">parse</text><text x="22.044" y="1.67" class="g">&quot;1600</text><text x="28.056" y="1.67" class="g">Amphitheatre</text><text x="41.082" y="1.67" class="g">Parkway,</text><text x="50.1" y="1.67" class="g">Mountain</text><text x="59.118" y="1.67" class="g">View</text></svg><svg x="5040"><use xlink:href="#a"/><use xlink:href="#b" x="63.996"/><use xlink:href="#9"/></svg><svg x="5120"><use xlink:href="#a"/><use xlink:href="#b" x="64.996"/><use xlink:href="#9"/></svg><svg x="5200"><use xlink:href="#a"/><use xlink:href="#b" x="65.996"/><text y="1.67" class="f">$</text><text x="2.004" y="1.67" class="g">npx</text><text x="6.012" y="1.67" class="g">mailwoman</text><text x="16.032" y="1.67" class="g">parse</text><text x="22.044" y="1.67" class="g">&quot;1600</text><text x="28.056" y="1.67" class="g">Amphitheatre</text><text x="41.082" y="1.67" class="g">Parkway,</text><text x="50.1" y="1.67" class="g">Mountain</text><text x="59.118" y="1.67" class="g">View,</text><text x="65.13" y="1.67" class="g">C</text></svg><svg x="5280"><use xlink:href="#a"/><use xlink:href="#b" x="66.996"/><use xlink:href="#10"/></svg><svg x="5360"><use xlink:href="#a"/><use xlink:href="#b" x="67.996"/><use xlink:href="#10"/></svg><svg x="5440"><use xlink:href="#a"/><use xlink:href="#b" x="68.996"/><text y="1.67" class="f">$</text><text x="2.004" y="1.67" class="g">npx</text><text x="6.012" y="1.67" class="g">mailwoman</text><text x="16.032" y="1.67" class="g">parse</text><text x="22.044" y="1.67" class="g">&quot;1600</text><text x="28.056" y="1.67" class="g">Amphitheatre</text><text x="41.082" y="1.67" class="g">Parkway,</text><text x="50.1" y="1.67" class="g">Mountain</text><text x="59.118" y="1.67" class="g">View,</text><text x="65.13" y="1.67" class="g">CA</text><text x="68.136" y="1.67" class="g">9</text></svg><svg x="5520"><use xlink:href="#a"/><use xlink:href="#b" x="69.996"/><text y="1.67" class="f">$</text><text x="2.004" y="1.67" class="g">npx</text><text x="6.012" y="1.67" class="g">mailwoman</text><text x="16.032" y="1.67" class="g">parse</text><text x="22.044" y="1.67" class="g">&quot;1600</text><text x="28.056" y="1.67" class="g">Amphitheatre</text><text x="41.082" y="1.67" class="g">Parkway,</text><text x="50.1" y="1.67" class="g">Mountain</text><text x="59.118" y="1.67" class="g">View,</text><text x="65.13" y="1.67" class="g">CA</text><text x="68.136" y="1.67" class="g">94</text></svg><svg x="5600"><use xlink:href="#a"/><use xlink:href="#b" x="70.996"/><text y="1.67" class="f">$</text><text x="2.004" y="1.67" class="g">npx</text><text x="6.012" y="1.67" class="g">mailwoman</text><text x="16.032" y="1.67" class="g">parse</text><text x="22.044" y="1.67" class="g">&quot;1600</text><text x="28.056" y="1.67" class="g">Amphitheatre</text><text x="41.082" y="1.67" class="g">Parkway,</text><text x="50.1" y="1.67" class="g">Mountain</text><text x="59.118" y="1.67" class="g">View,</text><text x="65.13" y="1.67" class="g">CA</text><text x="68.136" y="1.67" class="g">940</text></svg><svg x="5680"><use xlink:href="#a"/><use xlink:href="#b" x="71.996"/><text y="1.67" class="f">$</text><text x="2.004" y="1.67" class="g">npx</text><text x="6.012" y="1.67" class="g">mailwoman</text><text x="16.032" y="1.67" class="g">parse</text><text x="22.044" y="1.67" class="g">&quot;1600</text><text x="28.056" y="1.67" class="g">Amphitheatre</text><text x="41.082" y="1.67" class="g">Parkway,</text><text x="50.1" y="1.67" class="g">Mountain</text><text x="59.118" y="1.67" class="g">View,</text><text x="65.13" y="1.67" class="g">CA</text><text x="68.136" y="1.67" class="g">9404</text></svg><svg x="5760"><use xlink:href="#a"/><use xlink:href="#b" x="72.996"/><text y="1.67" class="f">$</text><text x="2.004" y="1.67" class="g">npx</text><text x="6.012" y="1.67" class="g">mailwoman</text><text x="16.032" y="1.67" class="g">parse</text><text x="22.044" y="1.67" class="g">&quot;1600</text><text x="28.056" y="1.67" class="g">Amphitheatre</text><text x="41.082" y="1.67" class="g">Parkway,</text><text x="50.1" y="1.67" class="g">Mountain</text><text x="59.118" y="1.67" class="g">View,</text><text x="65.13" y="1.67" class="g">CA</text><text x="68.136" y="1.67" class="g">94043</text></svg><svg x="5840"><use xlink:href="#a"/><use xlink:href="#b" x="73.996"/><use xlink:href="#11"/></svg><svg x="5920"><use xlink:href="#a"/><use xlink:href="#b" x="-.004" y="2.146"/><use xlink:href="#11"/></svg><svg x="6000"><use xlink:href="#a"/><use xlink:href="#b" x="-.004" y="4.317"/><use xlink:href="#11"/><use xlink:href="#12" y="2.171"/></svg><svg x="6080"><use xlink:href="#a"/><use xlink:href="#b" x="-.004" y="6.488"/><use xlink:href="#11"/><use xlink:href="#12" y="2.171"/><use xlink:href="#13" y="4.342"/></svg><svg x="6160"><use xlink:href="#a"/><use xlink:href="#b" x="-.004" y="8.659"/><use xlink:href="#11"/><use xlink:href="#12" y="2.171"/><use xlink:href="#13" y="4.342"/><use xlink:href="#14" y="6.513"/></svg><svg x="6240"><use xlink:href="#a"/><use xlink:href="#b" x="-.004" y="10.83"/><use xlink:href="#11"/><use xlink:href="#12" y="2.171"/><use xlink:href="#13" y="4.342"/><use xlink:href="#14" y="6.513"/><use xlink:href="#15" y="8.684"/></svg><svg x="6320"><use xlink:href="#a"/><use xlink:href="#b" x="-.004" y="13.001"/><use xlink:href="#11"/><use xlink:href="#12" y="2.171"/><use xlink:href="#13" y="4.342"/><use xlink:href="#14" y="6.513"/><use xlink:href="#15" y="8.684"/><use xlink:href="#16" y="10.855"/></svg><svg x="6400"><use xlink:href="#a"/><use xlink:href="#b" x="-.004" y="15.172"/><use xlink:href="#11"/><use xlink:href="#12" y="2.171"/><use xlink:href="#13" y="4.342"/><use xlink:href="#14" y="6.513"/><use xlink:href="#15" y="8.684"/><use xlink:href="#16" y="10.855"/><use xlink:href="#17" y="13.026"/></svg><svg x="6480"><use xlink:href="#a"/><use xlink:href="#b" x="-.004" y="17.343"/><use xlink:href="#11"/><use xlink:href="#12" y="2.171"/><use xlink:href="#13" y="4.342"/><use xlink:href="#14" y="6.513"/><use xlink:href="#15" y="8.684"/><use xlink:href="#16" y="10.855"/><use xlink:href="#17" y="13.026"/><use xlink:href="#18" y="15.197"/></svg><svg x="6560"><use xlink:href="#a"/><use xlink:href="#b" x="-.004" y="19.514"/><use xlink:href="#11"/><use xlink:href="#12" y="2.171"/><use xlink:href="#13" y="4.342"/><use xlink:href="#14" y="6.513"/><use xlink:href="#15" y="8.684"/><use xlink:href="#16" y="10.855"/><use xlink:href="#17" y="13.026"/><use xlink:href="#18" y="15.197"/><use xlink:href="#19" y="17.368"/></svg><svg x="6640"><use xlink:href="#a"/><use xlink:href="#b" x="1.996" y="19.514"/><use xlink:href="#11"/><use xlink:href="#12" y="2.171"/><use xlink:href="#13" y="4.342"/><use xlink:href="#14" y="6.513"/><use xlink:href="#15" y="8.684"/><use xlink:href="#16" y="10.855"/><use xlink:href="#17" y="13.026"/><use xlink:href="#18" y="15.197"/><use xlink:href="#19" y="17.368"/><use xlink:href="#1" y="19.539"/></svg><svg x="6720"><use xlink:href="#a"/><use xlink:href="#b" x="1.996" y="19.514"/><use xlink:href="#11"/><use xlink:href="#12" y="2.171"/><use xlink:href="#13" y="4.342"/><use xlink:href="#14" y="6.513"/><use xlink:href="#15" y="8.684"/><use xlink:href="#16" y="10.855"/><use xlink:href="#17" y="13.026"/><use xlink:href="#18" y="15.197"/><use xlink:href="#19" y="17.368"/><use xlink:href="#1" y="19.539"/></svg></svg></g></g></svg></svg>